<?xml version="1.0" encoding="UTF-8"?><svg xmlns="http://www.w3.org/2000/svg" xmlns:xlink="http://www.w3.org/1999/xlink" viewBox="0 0 1920.5 1080.5"><defs><style>.cls-1{fill:#fff;}.cls-2{fill:url(#Analogous_3);}</style><linearGradient id="Analogous_3" x1=".25" y1="540.25" x2="1920.25" y2="540.25" gradientUnits="userSpaceOnUse"><stop offset="0" stop-color="#00a995"/><stop offset="0" stop-color="#3c3795"/><stop offset=".51" stop-color="#a53594"/><stop offset="1" stop-color="#da2128"/></linearGradient></defs><g id="Layer_2"><rect class="cls-2" x=".25" y=".25" width="1920" height="1080"/></g><g id="Layer_6"><g><circle class="cls-1" cx="934.92" cy="72.46" r="8.71"/><circle class="cls-1" cx="857.35" cy="105.7" r="8.71"/><rect class="cls-1" x="940.46" y="71.25" width="41.16" height="4"/><rect class="cls-1" x="861.31" y="104.49" width="197.88" height="4"/><circle class="cls-1" cx="730.35" cy="94.62" r="8.71"/><circle class="cls-1" cx="1190.58" cy="94.62" r="8.71"/><circle class="cls-1" cx="1064.73" cy="105.7" r="8.71"/><circle class="cls-1" cx="987.16" cy="72.46" r="8.71"/><path class="cls-1" d="M639.68,509.59c-.55,0-1-.45-1-1,0-101.56,88.72-214.09,206.38-261.75,57.5-23.29,118.46-29.52,176.3-18,66.58,13.26,128.55,49.09,184.19,106.5,.38,.4,.38,1.03-.02,1.41-.4,.38-1.03,.38-1.41-.02-55.35-57.11-116.97-92.75-183.14-105.93-57.45-11.44-118.02-5.25-175.16,17.89-56.88,23.04-109.08,62.38-146.97,110.77-37.51,47.9-58.16,100.86-58.16,149.13,0,.55-.45,1-1,1Z"/><circle class="cls-1" cx="639.68" cy="511.76" r="4.75"/><circle class="cls-1" cx="638.1" cy="586.16" r="4.75"/><circle class="cls-1" cx="723.58" cy="348.7" r="4.75"/><circle class="cls-1" cx="687.17" cy="404.11" r="4.75"/><circle class="cls-1" cx="745.75" cy="369.28" r="4.75"/><circle class="cls-1" cx="842.31" cy="366.11" r="4.75"/><circle class="cls-1" cx="714.08" cy="416.77" r="4.75"/><circle class="cls-1" cx="679.26" cy="633.65" r="4.75"/><circle class="cls-1" cx="729.92" cy="772.96" r="4.75"/><circle class="cls-1" cx="782.16" cy="815.7" r="4.75"/><circle class="cls-1" cx="843.9" cy="817.29" r="4.75"/><circle class="cls-1" cx="989.54" cy="869.53" r="4.75"/><circle class="cls-1" cx="703" cy="489.59" r="4.75"/><circle class="cls-1" cx="717.25" cy="592.49" r="4.75"/><circle class="cls-1" cx="728.33" cy="671.64" r="4.75"/><circle class="cls-1" cx="704.59" cy="692.22" r="4.75"/><circle class="cls-1" cx="698.25" cy="549.75" r="4.75"/><circle class="cls-1" cx="733.08" cy="494.34" r="4.75"/><circle class="cls-1" cx="726.75" cy="549.75" r="4.75"/><circle class="cls-1" cx="805.9" cy="397.78" r="4.75"/><circle class="cls-1" cx="826.48" cy="440.52" r="4.75"/><circle class="cls-1" cx="1027.53" cy="370.86" r="4.75"/><circle class="cls-1" cx="1023.31" cy="403.02" r="4.75"/><circle class="cls-1" cx="987.95" cy="380.36" r="4.75"/><circle class="cls-1" cx="854.98" cy="412.02" r="4.75"/><circle class="cls-1" cx="1063.94" cy="407.27" r="4.75"/><circle class="cls-1" cx="1128.85" cy="508.59" r="4.75"/><circle class="cls-1" cx="1108.27" cy="689.06" r="4.75"/><circle class="cls-1" cx="1165.26" cy="551.33" r="4.75"/><circle class="cls-1" cx="1119.35" cy="622.57" r="4.75"/><circle class="cls-1" cx="774.24" cy="524.42" r="4.75"/><circle class="cls-1" cx="1049.69" cy="361.36" r="4.75"/><circle class="cls-1" cx="1155.69" cy="348.36" r="4.75"/><circle class="cls-1" cx="793.24" cy="510.17" r="4.75"/><circle class="cls-1" cx="791.65" cy="587.74" r="4.75"/><circle class="cls-1" cx="804.32" cy="651.06" r="4.75"/><circle class="cls-1" cx="832.81" cy="685.89" r="4.75"/><circle class="cls-1" cx="774.24" cy="568.75" r="4.75"/><circle class="cls-1" cx="877.14" cy="731.8" r="4.75"/><circle class="cls-1" cx="910.38" cy="744.46" r="4.75"/><circle class="cls-1" cx="1038.61" cy="736.55" r="4.75"/><circle class="cls-1" cx="763.16" cy="643.15" r="4.75"/><circle class="cls-1" cx="812.23" cy="708.05" r="4.75"/><circle class="cls-1" cx="1149.43" cy="687.47" r="4.75"/><circle class="cls-1" cx="1041.78" cy="785.62" r="4.75"/><circle class="cls-1" cx="733.08" cy="644.73" r="4.75"/><circle class="cls-1" cx="761.58" cy="720.72" r="4.75"/><circle class="cls-1" cx="820.15" cy="752.38" r="4.75"/><circle class="cls-1" cx="867.64" cy="777.71" r="4.75"/><circle class="cls-1" cx="930.96" cy="795.12" r="4.75"/><circle class="cls-1" cx="809.07" cy="279.05" r="4.75"/><circle class="cls-1" cx="771.07" cy="323.37" r="4.75"/><circle class="cls-1" cx="826.48" cy="285.38" r="4.75"/><circle class="cls-1" cx="869.22" cy="283.8" r="4.75"/><circle class="cls-1" cx="1070.27" cy="275.88" r="4.75"/><circle class="cls-1" cx="1128.85" cy="305.96" r="4.75"/><circle class="cls-1" cx="1222.25" cy="519.67" r="4.75"/><circle class="cls-1" cx="861.31" cy="302.79" r="4.75"/><circle class="cls-1" cx="1005.37" cy="320.21" r="4.75"/><circle class="cls-1" cx="935.37" cy="272.21" r="4.75"/><circle class="cls-1" cx="894.55" cy="324.95" r="4.75"/><circle class="cls-1" cx="848.64" cy="343.95" r="4.75"/><circle class="cls-1" cx="809.07" cy="331.29" r="4.75"/><circle class="cls-1" cx="873.97" cy="252.13" r="4.75"/><circle class="cls-1" cx="1434.38" cy="682.35" r="8.71"/><circle class="cls-1" cx="1402.51" cy="737.34" r="8.71"/><circle class="cls-1" cx="1364.93" cy="718.34" r="8.71"/><circle class="cls-1" cx="1350.27" cy="765.84" r="8.71"/><circle class="cls-1" cx="1285.36" cy="745.26" r="8.71"/><circle class="cls-1" cx="1278.44" cy="808.74" r="8.71"/><circle class="cls-1" cx="1352.85" cy="794.33" r="8.71"/><circle class="cls-1" cx="1343.35" cy="843.41" r="8.71"/><circle class="cls-1" cx="1269.53" cy="968.47" r="8.71"/><circle class="cls-1" cx="1162.88" cy="900.4" r="8.71"/><circle class="cls-1" cx="1063.15" cy="946.3" r="8.71"/><circle class="cls-1" cx="996.66" cy="980.87" r="8.71"/><circle class="cls-1" cx="925.42" cy="980.87" r="8.71"/><circle class="cls-1" cx="900.09" cy="998.55" r="8.71"/><circle class="cls-1" cx="1021.99" cy="998.55" r="8.71"/><circle class="cls-1" cx="858.93" cy="947.89" r="8.71"/><circle class="cls-1" cx="813.03" cy="998.55" r="8.71"/><circle class="cls-1" cx="1245.2" cy="870.32" r="8.71"/><circle class="cls-1" cx="1248.37" cy="894.06" r="8.71"/><circle class="cls-1" cx="1190.38" cy="1008.04" r="8.71"/><circle class="cls-1" cx="1334.43" cy="729.43" r="8.71"/><circle class="cls-1" cx="1379.18" cy="756.34" r="8.71"/><circle class="cls-1" cx="1401.92" cy="765.84" r="8.71"/><circle class="cls-1" cx="1378.76" cy="859.24" r="8.71"/><circle class="cls-1" cx="1208" cy="339.2" r="4.75"/><circle class="cls-1" cx="1258.66" cy="424.69" r="4.75"/><circle class="cls-1" cx="1195.33" cy="397.78" r="4.75"/><circle class="cls-1" cx="1177.92" cy="426.27" r="4.75"/><circle class="cls-1" cx="1204.83" cy="507.01" r="4.75"/><circle class="cls-1" cx="1185.84" cy="613.07" r="4.75"/><circle class="cls-1" cx="1195.33" cy="551.33" r="4.75"/><circle class="cls-1" cx="1075.02" cy="345.53" r="4.75"/><circle class="cls-1" cx="1182.67" cy="475.35" r="4.75"/><circle class="cls-1" cx="1148.62" cy="469.54" r="4.75"/><circle class="cls-1" cx="1081.51" cy="383.77" r="4.75"/><circle class="cls-1" cx="1109.85" cy="432.6" r="4.75"/><circle class="cls-1" cx="1245.99" cy="700.14" r="4.75"/><circle class="cls-1" cx="1177.92" cy="722.3" r="4.75"/><circle class="cls-1" cx="1222.25" cy="589.33" r="4.75"/><circle class="cls-1" cx="1135.18" cy="765.04" r="4.75"/><circle class="cls-1" cx="1079.77" cy="815.7" r="4.75"/><circle class="cls-1" cx="1014.87" cy="836.28" r="4.75"/><circle class="cls-1" cx="904.05" cy="836.28" r="4.75"/><circle class="cls-1" cx="1185.84" cy="780.87" r="4.75"/><circle class="cls-1" cx="1062.36" cy="853.7" r="4.75"/><circle class="cls-1" cx="1269.74" cy="545" r="4.75"/><circle class="cls-1" cx="1264.99" cy="614.65" r="4.75"/><path class="cls-1" d="M726.75,346.53c-.23,0-.47-.08-.66-.25-.42-.36-.46-1-.09-1.41,26.97-30.82,52.22-51.52,79.46-65.14,.5-.25,1.09-.05,1.34,.45,.25,.49,.05,1.09-.45,1.34-27,13.5-52.05,34.05-78.85,64.67-.2,.23-.47,.34-.75,.34Z"/><path class="cls-1" d="M1269.74,541.25c-.55,0-1-.45-1-1,0-88.88-45.9-179.81-119.78-237.31-35.63-27.72-75.84-46.52-119.53-55.87-47.81-10.23-98.43-8.74-150.45,4.45-.54,.13-1.08-.19-1.21-.72-.14-.54,.19-1.08,.72-1.21,52.32-13.26,103.24-14.76,151.36-4.46,43.99,9.41,84.48,28.34,120.34,56.25,74.36,57.87,120.56,149.4,120.56,238.88,0,.55-.45,1-1,1Z"/><path class="cls-1" d="M1247.57,697.97c-.15,0-.3-.03-.44-.1-.5-.24-.7-.84-.45-1.34,31.04-62.96,36.98-122.2,36.5-160.82-.53-43.22-9.65-84.35-23.79-107.33-.29-.47-.14-1.09,.33-1.38,.47-.29,1.09-.14,1.38,.33,17.12,27.82,23.67,74.21,24.09,108.36,.48,38.83-5.5,98.42-36.71,161.73-.17,.35-.53,.56-.9,.56Z"/><path class="cls-1" d="M829.65,284.8c-.37,0-.73-.21-.9-.57-.24-.5-.02-1.1,.47-1.33,81.01-38.48,157.22-41.51,239.83-9.53,.51,.2,.77,.78,.57,1.29-.2,.52-.78,.77-1.29,.57-82.07-31.77-157.77-28.76-238.25,9.47-.14,.07-.28,.1-.43,.1Z"/><path class="cls-1" d="M748.91,367.11c-.25,0-.5-.09-.69-.28-.4-.38-.41-1.02-.03-1.41,36.13-37.7,48.3-50.4,117.46-80.96,.5-.22,1.1,0,1.32,.51,.22,.51,0,1.1-.51,1.32-68.81,30.4-80.91,43.03-116.83,80.51-.2,.21-.46,.31-.72,.31Z"/><path class="cls-1" d="M1152.59,346.53c-.28,0-.56-.12-.76-.35-33.95-39.17-81.74-58.15-115.85-67.17-42.1-11.13-79.72-11.4-96.85-6.92-.54,.14-1.08-.18-1.22-.72-.14-.53,.18-1.08,.72-1.22,24.79-6.46,68.11-.94,97.87,6.93,34.39,9.09,82.57,28.23,116.86,67.79,.36,.42,.32,1.05-.1,1.41-.19,.16-.42,.24-.66,.24Z"/><path class="cls-1" d="M1082.94,816.7c-.46,0-.88-.32-.98-.79-.11-.54,.23-1.07,.77-1.18,17.39-3.64,50.49-24.55,85.27-63.07,38.13-42.24,66.16-92.92,78.94-142.69,12.61-49.16,11.1-97.85-4.49-144.72-18.33-55.11-56.24-107.57-112.66-155.93-.42-.36-.47-.99-.11-1.41,.36-.42,.99-.47,1.41-.11,56.7,48.6,94.81,101.37,113.26,156.82,15.72,47.24,17.24,96.32,4.53,145.85-12.85,50.09-41.04,101.06-79.39,143.54-35.07,38.85-68.64,59.98-86.34,63.69-.07,.01-.14,.02-.21,.02Z"/><path class="cls-1" d="M1181.09,720.14c-.21,0-.43-.07-.61-.21-.44-.34-.51-.97-.17-1.4,8.36-10.74,35.35-53.84,49.29-109.06,8.58-33.99,11.1-67.38,7.5-99.25-4.44-39.22-18.23-76.33-41-110.3-.31-.46-.18-1.08,.27-1.39,.46-.31,1.08-.19,1.39,.27,22.94,34.23,36.85,71.64,41.32,111.18,3.63,32.11,1.1,65.75-7.54,99.97-16.72,66.2-49.33,109.38-49.65,109.8-.2,.25-.49,.39-.79,.39Z"/><path class="cls-1" d="M1222.25,517.5c-.08,0-.16,0-.24-.03-.54-.13-.87-.67-.73-1.21,1.26-5.18-1.96-28.42-15.41-61.11-11-26.74-31.46-65.73-66.46-99.65-30.8-29.85-67.15-50.17-108.04-60.39-49.25-12.31-105.3-9.94-166.61,7.06-.53,.14-1.08-.16-1.23-.7-.15-.53,.16-1.08,.7-1.23,61.65-17.09,118.05-19.46,167.63-7.07,41.24,10.31,77.89,30.8,108.95,60.9,65.84,63.82,85.55,149.89,82.43,162.67-.11,.46-.52,.76-.97,.76Z"/><path class="cls-1" d="M677.67,633.07c-.38,0-.74-.22-.91-.58-16.67-36.52-17.3-96.75-1.64-157.19,17.27-66.64,51.46-121.74,93.8-151.16,.46-.31,1.08-.2,1.39,.25,.31,.45,.2,1.08-.25,1.39-41.95,29.15-75.85,83.83-93,150.02-15.55,60.01-14.97,119.73,1.52,155.86,.23,.5,0,1.1-.49,1.33-.13,.06-.28,.09-.42,.09Z"/><path class="cls-1" d="M703,489.01c-.06,0-.12,0-.17-.02-.54-.1-.91-.61-.81-1.16,6.56-37.15,29.79-94.05,103.25-154.16,.43-.35,1.06-.29,1.41,.14s.29,1.06-.14,1.41c-72.98,59.71-96.05,116.14-102.55,152.96-.09,.48-.51,.83-.98,.83Z"/><path class="cls-1" d="M717.25,593.49c-.49,0-.92-.36-.99-.87-8.88-65.09,2.91-126.07,34.08-176.35,28.22-45.51,72.07-81.09,123.47-100.17,52.09-19.34,109.56-20.95,161.81-4.55,57.59,18.08,107.09,57.01,143.13,112.58,.3,.46,.17,1.08-.29,1.38-.46,.3-1.08,.17-1.38-.29-35.79-55.18-84.91-93.82-142.05-111.76-51.84-16.27-108.84-14.67-160.52,4.51-50.99,18.93-94.48,54.21-122.47,99.35-30.92,49.88-42.61,110.4-33.8,175.02,.07,.55-.31,1.05-.86,1.13-.05,0-.09,0-.14,0Z"/><path class="cls-1" d="M897.72,324.37c-.43,0-.83-.28-.96-.72-.16-.53,.15-1.09,.67-1.24,36.83-10.91,70.65-12.47,103.41-4.76,.54,.13,.87,.67,.74,1.2-.13,.54-.67,.87-1.2,.74-32.41-7.63-65.9-6.08-102.39,4.73-.09,.03-.19,.04-.28,.04Z"/><path class="cls-1" d="M1182.67,474.76c-.42,0-.81-.27-.95-.69-23.12-71.15-70.18-108.69-105.59-127.66-.49-.26-.67-.87-.41-1.35,.26-.49,.87-.67,1.35-.41,35.73,19.14,83.22,57.02,106.54,128.8,.17,.53-.12,1.09-.64,1.26-.1,.03-.21,.05-.31,.05Z"/><rect class="cls-1" x="1097.49" y="269.27" width="18.07" height="10.63" transform="translate(319.12 -549.91) rotate(32.38)"/><rect class="cls-1" x="912.28" y="248.97" width="28.19" height="12.66" transform="translate(-17.01 72.64) rotate(-4.45)"/><rect class="cls-1" x="944.24" y="247.38" width="21.85" height="12.66" transform="translate(-8.36 33.87) rotate(-2.02)"/><rect class="cls-1" x="970.7" y="247.3" width="26.54" height="12.66" transform="translate(9.91 -35.74) rotate(2.09)"/><rect class="cls-1" x="1002.52" y="250.25" width="20.49" height="12.66" transform="translate(33.99 -108.83) rotate(6.26)"/><rect class="cls-1" x="1029.29" y="273.42" width="27.79" height="12.66" transform="translate(141.09 -314.15) rotate(18.35)"/><rect class="cls-1" x="1163.85" y="347.83" width="27.79" height="12.66" transform="translate(672.16 -766.95) rotate(48.99)"/><rect class="cls-1" x="1203.1" y="392.56" width="20.49" height="12.66" transform="translate(858.4 -828.02) rotate(55.67)"/><rect class="cls-1" x="1061.06" y="285.51" width="24.7" height="12.66" transform="translate(188.2 -381.8) rotate(22.06)"/><rect class="cls-1" x="1089.77" y="297.07" width="18.83" height="12.66" transform="translate(240.56 -446.95) rotate(25.72)"/><rect class="cls-1" x="842.41" y="318.9" width="21.32" height="12.66" transform="translate(-57.45 392.03) rotate(-25.07)"/><rect class="cls-1" x="864.57" y="342.65" width="21.32" height="12.66" transform="translate(-66.94 360.59) rotate(-22.44)"/><rect class="cls-1" x="848.6" y="381.95" width="21.32" height="12.66" transform="translate(-79.02 481.65) rotate(-30)"/><rect class="cls-1" x="710.91" y="426.39" width="21.67" height="12.66" transform="translate(-13.87 841.41) rotate(-60)"/><rect class="cls-1" x="655.89" y="533.12" width="20.54" height="12.66" transform="translate(94.24 1177.94) rotate(-87.15)"/><rect class="cls-1" x="689.73" y="562.63" width="18.72" height="11.94" transform="translate(200.17 1319) rotate(-95.5)"/><rect class="cls-1" x="737.22" y="633.87" width="18.72" height="11.94" transform="translate(474.24 1584.61) rotate(-114.52)"/><rect class="cls-1" x="747.94" y="656.6" width="20.42" height="12.22" transform="translate(523.39 1641.92) rotate(-117.68)"/><rect class="cls-1" x="786.67" y="726.61" width="17.65" height="12.22" transform="translate(839.88 1813.33) rotate(-135)"/><rect class="cls-1" x="1064.08" y="833.08" width="17.65" height="10.16" transform="translate(2378.37 1224.71) rotate(158.5)"/><rect class="cls-1" x="1119.91" y="799.79" width="27.8" height="10.16" transform="translate(2524.26 803.46) rotate(144.57)"/><rect class="cls-1" x="1207.76" y="634.61" width="27.8" height="11.83" transform="translate(2254.47 -273.82) rotate(110.81)"/><rect class="cls-1" x="1123.27" y="715.57" width="31.52" height="11.83" transform="translate(2443.08 378.91) rotate(132.93)"/><rect class="cls-1" x="1077.75" y="778.66" width="19.17" height="11.83" transform="translate(2426.71 847.17) rotate(146.86)"/><rect class="cls-1" x="1099.53" y="763.15" width="23.78" height="11.83" transform="translate(2460.63 689.12) rotate(141.93)"/><rect class="cls-1" x="1126.81" y="742.05" width="20.34" height="11.83" transform="translate(2469.84 472.9) rotate(135)"/><rect class="cls-1" x="1176.26" y="641.33" width="25.22" height="11.83" transform="translate(2256.73 -184.64) rotate(113.52)"/><rect class="cls-1" x="1196.84" y="522.6" width="25.22" height="11.83" transform="translate(1619.52 -726.06) rotate(84.5)"/><rect class="cls-1" x="1202.13" y="550.22" width="18" height="12.72" transform="translate(1767.72 -654.55) rotate(90)"/><rect class="cls-1" x="1199.76" y="576.34" width="19.58" height="12.72" transform="translate(1967.39 -525.56) rotate(98.64)"/><rect class="cls-1" x="1195.88" y="600.86" width="17.97" height="12.72" transform="translate(2060.55 -435.95) rotate(102.61)"/><rect class="cls-1" x="762.21" y="678.72" width="20.42" height="12.28" transform="translate(609.58 1704.24) rotate(-122.49)"/><rect class="cls-1" x="692.04" y="585.73" width="20.61" height="11.94" transform="translate(225.82 1376.76) rotate(-98.86)"/><rect class="cls-1" x="697.32" y="608.83" width="19.29" height="11.94" transform="translate(250.57 1433.01) rotate(-101.86)"/><rect class="cls-1" x="874.95" y="783.01" width="19.29" height="9.52" transform="translate(1431.55 1838.45) rotate(-159.19)"/><rect class="cls-1" x="900.55" y="788.54" width="19.29" height="11.94" transform="translate(1619.01 1772.91) rotate(-167.04)"/><rect class="cls-1" x="976.56" y="820.03" width="25.61" height="13.08" transform="translate(2020.47 1600.45) rotate(177.01)"/><rect class="cls-1" x="949.61" y="821.7" width="22.53" height="11.5" transform="translate(1921.75 1654.9) rotate(180)"/><rect class="cls-1" x="917.88" y="818.98" width="27.26" height="12.58" transform="translate(1793.42 1722.98) rotate(-175.37)"/><rect class="cls-1" x="652.53" y="563.23" width="26.94" height="12.66" transform="translate(130.29 1263.07) rotate(-92.85)"/><rect class="cls-1" x="656.5" y="594.08" width="25.33" height="12.66" transform="translate(178.93 1354.03) rotate(-98.86)"/><rect class="cls-1" x="725.97" y="405.51" width="18.82" height="12.66" transform="translate(-7.96 809.15) rotate(-57.37)"/><rect class="cls-1" x="740.21" y="384.93" width="18.82" height="12.66" transform="translate(.69 783.84) rotate(-55.22)"/><rect class="cls-1" x="767.83" y="417.88" width="21.38" height="11.55" transform="translate(-13.51 821.49) rotate(-55.22)"/><rect class="cls-1" x="749.95" y="441.33" width="25.57" height="13.67" transform="translate(-6.76 884.63) rotate(-60)"/><rect class="cls-1" x="669.92" y="453.19" width="22.44" height="12.66" transform="translate(53.51 989.79) rotate(-74.2)"/><rect class="cls-1" x="867.32" y="307.62" width="29.51" height="12.66" transform="translate(-53.89 289.78) rotate(-18.11)"/><rect class="cls-1" x="900.9" y="299.82" width="20.47" height="12.66" transform="translate(-47.41 234.78) rotate(-14.31)"/><path class="cls-1" d="M966.65,859.62c-41.68,0-83.87-8.65-124.1-25.64-54.32-22.94-101.11-59.32-135.31-105.21-31.9-42.8-51.5-92.88-56.66-144.83-5.76-57.85,5.72-117.44,34.11-177.1,.24-.5,.83-.71,1.33-.47,.5,.24,.71,.83,.47,1.33-28.23,59.33-39.64,118.56-33.92,176.04,5.13,51.58,24.59,101.32,56.28,143.83,33.99,45.61,80.5,81.77,134.49,104.56,54.59,23.05,112.81,30.66,168.38,22.03,54.07-8.41,102.65-31.42,144.38-68.39,46.21-40.95,82-97.56,106.38-168.28,.18-.52,.75-.8,1.27-.62,.52,.18,.8,.75,.62,1.27-24.49,71.04-60.47,127.95-106.94,169.12-42.02,37.23-90.94,60.4-145.39,68.87-14.97,2.33-30.13,3.48-45.36,3.48Z"/><path class="cls-1" d="M733.08,495.34c-.05,0-.11,0-.16-.01-.54-.09-.91-.6-.83-1.15,12.68-77.66,88.98-141.56,113.07-149.59,.53-.18,1.09,.11,1.27,.63,.17,.52-.11,1.09-.63,1.27-23.8,7.93-99.18,71.15-111.73,148.02-.08,.49-.5,.84-.99,.84Z"/><path class="cls-1" d="M971.57,828.81h-.04c-61.14,0-123.01-19.54-174.22-54.98-51.97-35.98-88.43-85.05-105.44-141.9-9.3-31.08-12.63-64.2-9.9-98.45,2.93-36.77,12.9-75.11,29.62-113.93,.22-.51,.81-.74,1.31-.52,.51,.22,.74,.81,.52,1.31-16.63,38.62-26.54,76.74-29.46,113.3-2.71,34,.59,66.88,9.82,97.72,16.88,56.42,53.08,105.12,104.67,140.83,50.87,35.22,112.34,54.62,173.08,54.63h.04c63.24,0,120.53-21.63,161.33-60.91,.4-.38,1.03-.37,1.41,.03,.38,.4,.37,1.03-.03,1.41-41.17,39.64-98.97,61.46-162.72,61.46Z"/><path class="cls-1" d="M726.75,770.79c-.27,0-.55-.11-.75-.33-18.66-20.81-38.11-44.18-53.96-74.01-16.38-30.81-27.47-65.3-34.93-108.54-.09-.54,.27-1.06,.82-1.16,.55-.09,1.06,.27,1.16,.82,7.42,43.02,18.45,77.32,34.73,107.94,15.75,29.64,35.11,52.89,53.69,73.61,.37,.41,.33,1.04-.08,1.41-.19,.17-.43,.26-.67,.26Z"/><path class="cls-1" d="M726.75,669.48c-.38,0-.73-.21-.91-.57-13.75-29.22-28.59-81.27-28.59-114.41,0-.55,.45-1,1-1s1,.45,1,1c0,32.86,14.74,84.53,28.4,113.55,.24,.5,.02,1.1-.48,1.33-.14,.06-.28,.09-.43,.09Z"/><circle class="cls-1" cx="844.04" cy="641.1" r="4.75"/><circle class="cls-1" cx="807.29" cy="523.91" r="4.75"/><rect class="cls-1" x="796.47" y="557.95" width="20.61" height="11.94" transform="translate(431.53 1473.91) rotate(-102.54)"/><rect class="cls-1" x="807.51" y="593.21" width="19.29" height="11.94" transform="translate(561.98 1579.82) rotate(-111.67)"/><path class="cls-1" d="M842.26,639.05c-.23,0-.46-.08-.65-.24-16.61-14.11-47.41-75.03-36.08-112.96,.16-.53,.71-.83,1.24-.67,.53,.16,.83,.72,.67,1.24-11.12,37.21,19.14,97.01,35.46,110.86,.42,.36,.47,.99,.11,1.41-.2,.23-.48,.35-.76,.35Z"/><path class="cls-1" d="M960.97,871.38c-35.66,0-69.05-4.61-99.56-13.76-37.26-11.18-62.28-26.81-76.71-37.96-.44-.34-.52-.97-.18-1.4,.34-.44,.97-.52,1.4-.18,14.29,11.04,39.09,26.54,76.06,37.63,37.87,11.36,80.23,15.67,125.9,12.82,.57-.03,1.03,.38,1.06,.94,.03,.55-.38,1.03-.94,1.06-9.15,.57-18.17,.86-27.04,.86Z"/><path class="cls-1" d="M1065.52,854.7c-.43,0-.82-.27-.95-.7-.17-.53,.13-1.09,.65-1.25,57.44-18.05,95.05-49.17,118.35-71.01,.4-.38,1.03-.36,1.41,.05,.38,.4,.36,1.04-.05,1.41-16.02,15.01-31.79,27.48-48.23,38.1-22.13,14.31-45.98,25.53-70.89,33.36-.1,.03-.2,.05-.3,.05Z"/><path class="cls-1" d="M842.31,818.29c-.12,0-.24-.02-.36-.07-66.32-25.88-102.46-72.6-136.6-122.26-.31-.46-.2-1.08,.26-1.39,.46-.31,1.08-.2,1.39,.26,33.96,49.39,69.89,95.85,135.68,121.53,.51,.2,.77,.78,.57,1.29-.15,.4-.53,.64-.93,.64Z"/><path class="cls-1" d="M961.55,843.76c-30.85,0-54.19-4.84-54.54-4.91-.54-.12-.89-.65-.77-1.19,.11-.54,.64-.89,1.19-.77,.52,.11,52.65,10.91,104.07,0,.54-.11,1.07,.23,1.19,.77,.11,.54-.23,1.07-.77,1.19-17.37,3.68-34.82,4.91-50.36,4.91Z"/><path class="cls-1" d="M763.16,642.57c-.37,0-.72-.2-.9-.55-.77-1.53-66.03-161.62,41.44-245.03,.44-.34,1.06-.26,1.4,.18,.34,.44,.26,1.06-.18,1.4-106.29,82.49-41.64,241.03-40.88,242.55,.25,.49,.05,1.09-.45,1.34-.14,.07-.3,.11-.45,.11Z"/><circle class="cls-1" cx="1104.06" cy="606.91" r="4.75"/><rect class="cls-1" x="1102.39" y="571.54" width="21.38" height="11.55" transform="translate(1851.09 -436.36) rotate(98.64)"/><rect class="cls-1" x="1105.29" y="535.33" width="25.57" height="13.67" transform="translate(1769.72 -515.85) rotate(95.76)"/><path class="cls-1" d="M1105.39,607.05c-.11,0-.22-.02-.33-.06-.52-.18-.79-.75-.61-1.28,17.39-49.34,15.1-96.3-6.62-135.81-21.23-38.62-56.74-61.98-75.17-66.23-.54-.12-.87-.66-.75-1.2,.12-.54,.66-.87,1.2-.75,18.8,4.34,54.95,28.06,76.47,67.21,22,40.02,24.33,87.55,6.75,137.44-.14,.41-.53,.67-.94,.67Z"/><path class="cls-1" d="M972.63,814.97c-40.66,0-76.35-9.48-101.9-18.99-45.15-16.8-84.64-43.42-108.35-73.06-.35-.43-.28-1.06,.16-1.41,.43-.35,1.06-.28,1.41,.16,23.49,29.36,62.67,55.76,107.48,72.44,35.33,13.14,90.14,26.23,150.62,13.96,66.79-13.55,155.58-62.28,199.24-217.43,.15-.53,.7-.84,1.23-.69,.53,.15,.84,.7,.69,1.23-43.94,156.13-133.43,205.19-200.77,218.85-17.16,3.48-33.87,4.94-49.81,4.94Z"/><path class="cls-1" d="M818.57,751.8c-.21,0-.42-.07-.6-.2-37.84-28.38-65.12-55.56-84.23-103.33-.21-.51,.04-1.09,.56-1.3,.51-.21,1.1,.04,1.3,.56,18.93,47.33,46.01,74.3,83.57,102.47,.44,.33,.53,.96,.2,1.4-.2,.26-.5,.4-.8,.4Z"/><path class="cls-1" d="M963.64,783.64c-73.58,0-125.18-31.28-156.73-59.46-25.11-22.42-45.94-50.55-60.25-81.33-13.68-29.42-20.91-59.97-20.91-88.35,0-.55,.45-1,1-1s1,.45,1,1c0,28.09,7.16,58.35,20.72,87.5,14.2,30.54,34.87,58.44,59.77,80.68,31.28,27.94,82.45,58.95,155.42,58.95,9.78,0,19.95-.56,30.52-1.75,54.21-6.14,111.96-40.92,154.48-93.04,.35-.43,.98-.5,1.41-.14,.43,.35,.49,.98,.14,1.41-42.84,52.52-101.08,87.57-155.8,93.76-10.65,1.21-20.9,1.77-30.76,1.77Z"/><path class="cls-1" d="M927.8,796.12c-31.85,0-51.84-8.69-59.28-16.12-.39-.39-.39-1.02,0-1.41s1.02-.39,1.41,0c7.17,7.17,26.62,15.54,57.87,15.54,.55,0,1,.45,1,1s-.45,1-1,1Z"/><path class="cls-1" d="M968.49,766.2c-4.43,0-8.88-.14-13.34-.42-23.6-1.47-47.65-6.84-71.48-15.94-42.44-16.21-69.36-38.5-70.49-39.44-.42-.35-.48-.99-.13-1.41,.35-.42,.98-.48,1.41-.13,1.12,.93,27.79,23.01,69.92,39.1,23.65,9.03,47.5,14.35,70.89,15.82,29.03,1.81,57.49-2.34,84.58-12.35,14.9-5.51,90.95-37.16,124.48-119.75,17.66-43.49,20.65-93.41,8.41-140.55-13.03-50.21-41.55-92.06-82.46-121.05-34.87-24.7-76.39-38.21-120.07-39.06-43.7-.86-86.67,11.02-124.19,34.35-.47,.29-1.09,.15-1.38-.32-.29-.47-.15-1.09,.32-1.38,37.86-23.53,81.17-35.53,125.29-34.65,44.08,.86,85.99,14.5,121.19,39.43,41.31,29.26,70.09,71.51,83.24,122.18,12.34,47.56,9.33,97.92-8.49,141.8-33.85,83.37-110.6,115.32-125.64,120.87-23.19,8.57-47.37,12.88-72.05,12.89Z"/><path class="cls-1" d="M1043.36,786.62c-.44,0-.84-.29-.96-.73-.15-.53,.17-1.08,.7-1.23,50.25-13.86,104.15-61.99,137.31-122.61,29.4-53.75,37.74-108.71,23.47-154.75-.16-.53,.13-1.09,.66-1.25,.53-.16,1.09,.13,1.25,.66,14.43,46.57,6.04,102.07-23.63,156.3-33.41,61.07-87.79,109.58-138.53,123.58-.09,.02-.18,.04-.27,.04Z"/><path class="cls-1" d="M1187.42,610.9c-.15,0-.3-.03-.45-.11-.49-.25-.69-.85-.45-1.34,2.94-5.88,7.81-34.01,7.81-54.96,0-.55,.45-1,1-1s1,.45,1,1c0,20.13-4.59,49-8.02,55.85-.18,.35-.53,.55-.9,.55Z"/><circle class="cls-1" cx="871.12" cy="667.47" r="4.75"/><circle class="cls-1" cx="948.81" cy="703.25" r="4.75"/><path class="cls-1" d="M946.64,704.01s-.02,0-.03,0c-16.89-.57-52.25-10.52-75.2-34.76-.38-.4-.36-1.03,.04-1.41,.4-.38,1.03-.36,1.41,.04,23.38,24.69,59.83,33.66,73.82,34.14,.55,.02,.98,.48,.97,1.03-.02,.54-.46,.97-1,.97Z"/><path class="cls-1" d="M793.24,508.01c-.55,0-1-.45-1-1,0-11.87,4.15-36.17,31.93-65.59,.38-.4,1.01-.42,1.41-.04,.4,.38,.42,1.01,.04,1.41-27.31,28.92-31.39,52.65-31.39,64.22,0,.55-.45,1-1,1Z"/><path class="cls-1" d="M1146.59,465.97c-.37,0-.73-.21-.9-.57-14.25-29.58-39.59-61.49-63.06-79.42-.44-.34-.52-.96-.19-1.4,.34-.44,.96-.52,1.4-.19,23.69,18.1,49.27,50.3,63.64,80.14,.24,.5,.03,1.1-.47,1.33-.14,.07-.29,.1-.43,.1Z"/><path class="cls-1" d="M873.97,731.22c-.12,0-.25-.02-.38-.07-38.04-15.41-69.14-44.02-89.92-82.72-19.43-36.18-28.4-79.24-25.25-121.25,3.07-40.99,17.23-78.6,40.96-108.75,26.61-33.81,63.34-56.53,109.18-67.53,26.43-6.34,79.95-13.54,141.48,9.53,.52,.19,.78,.77,.58,1.29-.19,.52-.77,.78-1.29,.59-61.02-22.89-114.1-15.75-140.31-9.46-45.39,10.89-81.75,33.38-108.07,66.82-23.48,29.84-37.5,67.07-40.54,107.67-3.12,41.63,5.77,84.3,25.02,120.15,20.56,38.29,51.3,66.58,88.91,81.81,.51,.21,.76,.79,.55,1.3-.16,.39-.53,.62-.93,.62Z"/><path class="cls-1" d="M774.24,522.25c-.07,0-.14,0-.21-.02-.54-.12-.88-.65-.76-1.19l.14-.64c11.09-50.69,40.53-185.36,254.29-150.52,.54,.09,.92,.6,.83,1.15-.09,.54-.59,.92-1.15,.83-90.76-14.79-158.5-.52-201.32,42.41-35.08,35.17-45.24,81.62-50.69,106.57l-.14,.64c-.1,.47-.52,.79-.98,.79Z"/><path class="cls-1" d="M1128.85,508.01c-.43,0-.83-.28-.96-.72-7.33-24.92-16.45-55.92-63.03-97.69-.41-.37-.45-1-.08-1.41,.37-.41,1-.44,1.41-.08,47.01,42.14,56.21,73.45,63.61,98.61,.16,.53-.15,1.09-.68,1.24-.09,.03-.19,.04-.28,.04Z"/><circle class="cls-1" cx="1088.33" cy="637.65" r="4.75"/><circle class="cls-1" cx="989.02" cy="705.59" r="4.75"/><path class="cls-1" d="M990.6,706.54c-.42,0-.81-.27-.95-.69-.17-.53,.11-1.09,.64-1.26,24.68-8.08,55.4-18.13,95.74-65.96,.36-.42,.99-.48,1.41-.12,.42,.36,.48,.99,.12,1.41-40.7,48.26-71.72,58.41-96.64,66.57-.1,.03-.21,.05-.31,.05Z"/><path class="cls-1" d="M801.15,648.9c-.29,0-.57-.12-.77-.36-8.97-10.76-15.27-26.67-18.98-38.13-4.93-15.22-7.45-29-8.16-36.83-.05-.55,.36-1.04,.91-1.09,.55-.05,1.04,.36,1.09,.91,1.49,16.37,10.84,54.85,26.68,73.85,.35,.42,.3,1.06-.13,1.41-.19,.16-.41,.23-.64,.23Z"/><path class="cls-1" d="M966.99,737.88c-44.83,0-90.6-17-133.2-49.61-.44-.34-.52-.96-.19-1.4,.34-.44,.96-.52,1.4-.19,46.44,35.56,96.66,52.4,145.2,48.7,42.75-3.26,83.54-22.61,114.85-54.47,30.92-31.48,50.31-72.35,54.6-115.09,4.68-46.64-8.81-91.4-39.01-129.42-.34-.43-.27-1.06,.16-1.41,.43-.34,1.06-.27,1.41,.16,30.53,38.44,44.16,83.7,39.43,130.87-4.33,43.19-23.93,84.49-55.17,116.29-31.65,32.21-72.89,51.77-116.12,55.07-4.44,.34-8.9,.51-13.37,.51Z"/><path class="cls-1" d="M1109.85,688.47c-.23,0-.46-.08-.65-.24-.42-.36-.47-.99-.12-1.41,32.51-38.3,52.1-84.75,55.17-130.81,.04-.55,.53-.95,1.06-.93,.55,.04,.97,.51,.93,1.06-3.1,46.48-22.86,93.35-55.64,131.98-.2,.23-.48,.35-.76,.35Z"/><path class="cls-1" d="M961.05,724.43c-10.2,0-20.36-1.11-30.46-3.33-31.48-6.94-60.83-22.31-84.89-44.46-24.83-22.86-43.3-52.4-53.43-85.43-.16-.53,.13-1.09,.66-1.25,.53-.16,1.09,.13,1.25,.66,10.02,32.69,28.3,61.92,52.87,84.54,23.8,21.91,52.83,37.12,83.96,43.98,31.29,6.9,63.27,2.93,95.05-11.79,17.02-7.89,33.27-18.55,48.29-31.71,18.04-15.8,36.65-40.3,44.14-52.03,.3-.47,.91-.6,1.38-.3,.47,.3,.6,.92,.3,1.38-7.85,12.29-26.18,36.41-44.51,52.45-15.16,13.28-31.57,24.05-48.77,32.02-21.95,10.17-44,15.27-65.86,15.27Z"/><path class="cls-1" d="M856.56,411.44c-.26,0-.53-.1-.73-.31-.38-.4-.36-1.03,.04-1.41,29.75-28.19,99.32-36.92,132.28-30.33,.54,.11,.89,.64,.78,1.18s-.64,.89-1.18,.78c-32.55-6.51-101.21,2.06-130.51,29.82-.19,.18-.44,.27-.69,.27Z"/><path class="cls-1" d="M962.51,751.64c-16.01,0-33.74-1.67-52.36-6.21-.54-.13-.87-.67-.73-1.21,.13-.54,.67-.87,1.21-.73,67.75,16.53,123.69-5.35,126.04-6.29,.51-.21,1.09,.04,1.3,.56,.21,.51-.04,1.09-.56,1.3-1.73,.69-32.12,12.58-74.89,12.58Z"/><polygon class="cls-1" points="1100.35 144.9 1056.78 144.9 1019.78 107.91 1022.61 105.08 1058.44 140.9 1100.35 140.9 1100.35 144.9"/><circle class="cls-1" cx="816.19" cy="142.11" r="8.71"/><circle class="cls-1" cx="879.51" cy="167.44" r="8.71"/><polygon class="cls-1" points="865.3 144.9 821.73 144.9 821.73 140.9 863.65 140.9 899.47 105.08 902.3 107.91 865.3 144.9"/><polygon class="cls-1" points="1038.78 164.9 1014.04 140.15 908.05 140.15 884.09 164.11 881.27 161.28 906.39 136.15 1015.69 136.15 1041.61 162.07 1038.78 164.9"/><polygon class="cls-1" points="1071.69 226.64 1068.86 223.81 1112.19 180.48 1142.34 180.48 1160.34 198.48 1157.51 201.31 1140.68 184.48 1113.84 184.48 1071.69 226.64"/><circle class="cls-1" cx="759.2" cy="202.27" r="8.71"/><polygon class="cls-1" points="850.4 225.05 808.24 182.9 781.4 182.9 764.57 199.72 761.75 196.9 779.74 178.9 809.9 178.9 853.22 222.22 850.4 225.05"/><polygon class="cls-1" points="1238.25 232.97 1188.59 183.31 1188.59 101.74 1192.59 101.74 1192.59 181.65 1241.07 230.14 1238.25 232.97"/><polygon class="cls-1" points="1244.58 210.81 1218.25 184.48 1190.59 184.48 1190.59 180.48 1219.91 180.48 1247.41 207.98 1244.58 210.81"/><circle class="cls-1" cx="676.88" cy="235.51" r="8.71"/><circle class="cls-1" cx="668.97" cy="214.93" r="8.71"/><polygon class="cls-1" points="682.25 232.97 679.43 230.14 727.92 181.65 727.92 101.74 731.92 101.74 731.92 183.31 682.25 232.97"/><polygon class="cls-1" points="675.92 210.81 673.09 207.98 700.59 180.48 729.92 180.48 729.92 184.48 702.25 184.48 675.92 210.81"/><polygon class="cls-1" points="1338.77 260.67 1267.74 189.64 1267.74 142.9 1271.74 142.9 1271.74 187.98 1341.6 257.84 1338.77 260.67"/><polygon class="cls-1" points="1376.76 335.08 1299.4 257.71 1299.4 220.47 1303.4 220.47 1303.4 256.05 1379.59 332.25 1376.76 335.08"/><polygon class="cls-1" points="1396.55 389.69 1353.22 346.36 1353.22 310.71 1357.22 310.71 1357.22 344.71 1399.38 386.86 1396.55 389.69"/><circle class="cls-1" cx="652.55" cy="135.78" r="8.71"/><circle class="cls-1" cx="578.73" cy="262.42" r="8.71"/><circle class="cls-1" cx="539.16" cy="338.41" r="8.71"/><circle class="cls-1" cx="519.58" cy="393.4" r="8.71"/><polygon class="cls-1" points="583.31 260.67 580.49 257.84 650.35 187.98 650.35 142.9 654.35 142.9 654.35 189.64 583.31 260.67"/><polygon class="cls-1" points="545.32 335.08 542.49 332.25 618.68 256.05 618.68 220.47 622.68 220.47 622.68 257.71 545.32 335.08"/><polygon class="cls-1" points="525.53 389.69 522.7 386.86 564.86 344.71 564.86 310.71 568.86 310.71 568.86 346.36 525.53 389.69"/><polygon class="cls-1" points="1368.3 519.67 1364.3 519.67 1364.3 400.19 1200.88 236.76 1163.5 274.13 1160.68 271.3 1200.88 231.1 1368.3 398.53 1368.3 519.67"/><polygon class="cls-1" points="1333.48 437.35 1329.48 437.35 1329.48 400.19 1294.65 365.36 1294.65 329.7 1298.65 329.7 1298.65 363.7 1333.48 398.53 1333.48 437.35"/><polygon class="cls-1" points="1350.89 538.67 1346.89 538.67 1346.89 507.83 1285.74 446.68 1288.57 443.85 1350.89 506.18 1350.89 538.67"/><polygon class="cls-1" points="1280.57 293.12 1266.91 279.46 1243.99 279.46 1243.99 275.46 1268.57 275.46 1283.4 290.3 1280.57 293.12"/><polygon class="cls-1" points="1385.72 556.08 1381.72 556.08 1381.72 501.5 1364.89 484.67 1367.72 481.85 1385.72 499.85 1385.72 556.08"/><circle class="cls-1" cx="635.56" cy="297.25" r="8.71"/><circle class="cls-1" cx="590.81" cy="442.89" r="8.71"/><circle class="cls-1" cx="555.99" cy="523.63" r="8.71"/><circle class="cls-1" cx="538.57" cy="561.62" r="8.71"/><circle class="cls-1" cx="574.05" cy="544.21" r="8.71"/><polygon class="cls-1" points="557.78 519.67 553.78 519.67 553.78 398.53 554.37 397.94 721.21 231.1 761.41 271.3 758.58 274.13 721.21 236.76 557.78 400.19 557.78 519.67"/><polygon class="cls-1" points="592.61 437.35 588.61 437.35 588.61 398.53 623.43 363.7 623.43 329.7 627.43 329.7 627.43 365.36 592.61 400.19 592.61 437.35"/><polygon class="cls-1" points="575.61 538.67 571.61 538.67 571.61 506.18 633.93 443.85 636.76 446.68 575.61 507.83 575.61 538.67"/><polygon class="cls-1" points="641.51 293.12 638.68 290.3 653.52 275.46 678.09 275.46 678.09 279.46 655.17 279.46 641.51 293.12"/><polygon class="cls-1" points="540.37 556.08 536.37 556.08 536.37 499.85 554.37 481.85 557.19 484.67 540.37 501.5 540.37 556.08"/><rect class="cls-1" x="1428.81" y="347.12" width="4" height="145.64"/><polygon class="cls-1" points="1409.46 545 1405.46 545 1405.46 457.1 1429.8 432.77 1432.62 435.6 1409.46 458.76 1409.46 545"/><circle class="cls-1" cx="490.08" cy="341.58" r="8.71"/><circle class="cls-1" cx="490.08" cy="498.3" r="8.71"/><circle class="cls-1" cx="513.64" cy="550.54" r="8.71"/><rect class="cls-1" x="488.08" y="347.12" width="4" height="145.64"/><polygon class="cls-1" points="515.43 545 511.43 545 511.43 458.76 488.27 435.6 491.1 432.77 515.43 457.1 515.43 545"/><polygon class="cls-1" points="1405.13 599.24 1386.06 599.24 1366.47 579.66 1369.3 576.83 1387.71 595.24 1403.47 595.24 1470.16 528.55 1472.99 531.37 1405.13 599.24"/><circle class="cls-1" cx="445.76" cy="523.63" r="8.71"/><circle class="cls-1" cx="558.15" cy="571.12" r="8.71"/><polygon class="cls-1" points="536.03 597.66 516.96 597.66 449.09 529.79 451.92 526.96 518.61 593.66 534.37 593.66 552.78 575.25 555.61 578.07 536.03 597.66"/><polygon class="cls-1" points="1366.72 712.8 1362.72 712.8 1362.72 598.07 1301.57 536.92 1304.4 534.09 1366.72 596.41 1366.72 712.8"/><polygon class="cls-1" points="1380.97 750.8 1376.97 750.8 1376.97 651.89 1363.31 638.23 1366.13 635.4 1380.97 650.24 1380.97 750.8"/><circle class="cls-1" cx="557.15" cy="716.76" r="8.71"/><circle class="cls-1" cx="542.91" cy="754.75" r="8.71"/><polygon class="cls-1" points="559.36 711.22 555.36 711.22 555.36 594.83 617.69 532.5 620.52 535.33 559.36 596.49 559.36 711.22"/><polygon class="cls-1" points="545.11 749.21 541.11 749.21 541.11 648.65 555.95 633.82 558.78 636.65 545.11 650.31 545.11 749.21"/><polygon class="cls-1" points="1436.38 676.39 1432.38 676.39 1432.38 594.83 1469.37 557.83 1472.2 560.66 1436.38 596.49 1436.38 676.39"/><polygon class="cls-1" points="1404.71 730.22 1400.71 730.22 1400.71 670.81 1432.96 638.57 1435.79 641.4 1404.71 672.47 1404.71 730.22"/><circle class="cls-1" cx="444.17" cy="553.71" r="8.71"/><circle class="cls-1" cx="486.12" cy="678.77" r="8.71"/><circle class="cls-1" cx="517.99" cy="735.76" r="8.71"/><polygon class="cls-1" points="488.12 674.81 484.12 674.81 484.12 594.9 448.3 559.08 451.13 556.25 488.12 593.25 488.12 674.81"/><polygon class="cls-1" points="519.79 728.63 515.79 728.63 515.79 670.89 484.71 639.81 487.54 636.99 519.79 669.23 519.79 728.63"/><polygon class="cls-1" points="1225.24 766.46 1222.42 763.63 1334.64 651.4 1352.47 669.23 1352.47 760.3 1348.47 760.3 1348.47 670.89 1334.64 657.06 1225.24 766.46"/><rect class="cls-1" x="1332.64" y="654.23" width="4" height="69.65"/><circle class="cls-1" cx="571.82" cy="767.42" r="8.71"/><circle class="cls-1" cx="587.65" cy="731.01" r="8.71"/><polygon class="cls-1" points="696.84 768.04 587.44 658.64 573.61 672.47 573.61 761.88 569.61 761.88 569.61 670.82 587.44 652.99 589.65 655.19 699.67 765.21 696.84 768.04"/><rect class="cls-1" x="585.44" y="655.81" width="4" height="69.65"/><polygon class="cls-1" points="1380.97 852.11 1376.97 852.11 1376.97 805.66 1397.36 770.97 1400.81 772.99 1380.97 806.75 1380.97 852.11"/><circle class="cls-1" cx="521.74" cy="765.84" r="8.71"/><circle class="cls-1" cx="544.91" cy="859.24" r="8.71"/><polygon class="cls-1" points="546.7 852.11 542.7 852.11 542.7 806.75 522.86 772.99 526.3 770.97 546.7 805.66 546.7 852.11"/><polygon class="cls-1" points="1190.59 873.94 1149.59 832.95 1152.42 830.12 1190.59 868.28 1283.57 775.3 1283.57 752.38 1287.57 752.38 1287.57 776.95 1190.59 873.94"/><polygon class="cls-1" points="1261.07 830.37 1233.33 830.37 1233.33 826.37 1259.41 826.37 1272.28 813.5 1275.11 816.32 1261.07 830.37"/><circle class="cls-1" cx="633.56" cy="745.26" r="8.71"/><circle class="cls-1" cx="642.06" cy="810.74" r="8.71"/><polygon class="cls-1" points="728.33 873.94 631.35 776.95 631.35 752.38 635.35 752.38 635.35 775.3 728.33 868.28 766.49 830.12 769.32 832.95 728.33 873.94"/><polygon class="cls-1" points="685.59 830.37 657.85 830.37 643.81 816.32 646.64 813.5 659.51 826.37 685.59 826.37 685.59 830.37"/><polygon class="cls-1" points="1140.76 926.93 1113.77 926.93 1062.53 875.69 1065.35 872.86 1115.43 922.93 1139.1 922.93 1156.72 905.31 1159.55 908.14 1140.76 926.93"/><circle class="cls-1" cx="759.2" cy="900.4" r="8.71"/><circle class="cls-1" cx="731.71" cy="1008.04" r="8.71"/><circle class="cls-1" cx="653.72" cy="968.47" r="8.71"/><polygon class="cls-1" points="808.31 926.93 781.33 926.93 762.54 908.14 765.37 905.31 782.99 922.93 806.66 922.93 856.73 872.86 859.56 875.69 808.31 926.93"/><polygon class="cls-1" points="1303.4 885.36 1299.4 885.36 1299.4 846.54 1347.48 798.46 1350.3 801.29 1303.4 848.19 1303.4 885.36"/><polygon class="cls-1" points="1271.74 962.93 1267.74 962.93 1267.74 916.19 1336.39 847.53 1339.22 850.36 1271.74 917.85 1271.74 962.93"/><circle class="cls-1" cx="570.82" cy="794.33" r="8.71"/><circle class="cls-1" cx="580.32" cy="843.41" r="8.71"/><polygon class="cls-1" points="624.27 885.36 620.27 885.36 620.27 848.19 573.36 801.29 576.19 798.46 624.27 846.54 624.27 885.36"/><polygon class="cls-1" points="655.93 962.93 651.93 962.93 651.93 917.85 584.44 850.36 587.27 847.53 655.93 916.19 655.93 962.93"/><polygon class="cls-1" points="1192.59 1004.09 1188.59 1004.09 1188.59 924.1 1239.83 872.86 1242.66 875.69 1192.59 925.76 1192.59 1004.09"/><polygon class="cls-1" points="1216.74 926.93 1190.59 926.93 1190.59 922.93 1215.09 922.93 1241.41 896.61 1244.24 899.43 1216.74 926.93"/><circle class="cls-1" cx="676.88" cy="870.32" r="8.71"/><circle class="cls-1" cx="673.72" cy="894.06" r="8.71"/><polygon class="cls-1" points="733.5 1004.09 729.5 1004.09 729.5 925.76 679.43 875.69 682.25 872.86 733.5 924.1 733.5 1004.09"/><polygon class="cls-1" points="731.5 926.93 705.34 926.93 677.84 899.43 680.67 896.61 707 922.93 731.5 922.93 731.5 926.93"/><rect class="cls-1" x="866.06" y="945.1" width="189.97" height="4"/><polygon class="cls-1" points="819.19 995.21 816.36 992.38 836.73 972.01 882.64 972.01 908.97 945.68 911.8 948.51 884.3 976.01 838.39 976.01 819.19 995.21"/><circle class="cls-1" cx="1110.64" cy="998.55" r="8.71"/><polygon class="cls-1" points="1104.48 995.21 1085.27 976.01 1039.37 976.01 1011.87 948.51 1014.7 945.68 1041.02 972.01 1086.93 972.01 1107.31 992.38 1104.48 995.21"/><rect class="cls-1" x="929.38" y="978.87" width="61.74" height="4"/><polygon class="cls-1" points="1006.99 1017.17 915.89 1017.17 903.43 1004.71 906.26 1001.88 917.54 1013.17 1005.33 1013.17 1016.62 1001.88 1019.45 1004.71 1006.99 1017.17"/><circle class="cls-1" cx="1269.53" cy="135.78" r="8.71"/><circle class="cls-1" cx="1251.53" cy="214.93" r="8.71"/><circle class="cls-1" cx="1243.62" cy="235.51" r="8.71"/><circle class="cls-1" cx="1343.84" cy="262.42" r="8.71"/><circle class="cls-1" cx="1162.88" cy="203.85" r="8.71"/><circle class="cls-1" cx="1105.89" cy="142.11" r="8.71"/><circle class="cls-1" cx="1042.57" cy="167.44" r="8.71"/><circle class="cls-1" cx="1285.53" cy="297.25" r="8.71"/><circle class="cls-1" cx="1382.93" cy="338.41" r="8.71"/><circle class="cls-1" cx="1403.51" cy="393.82" r="8.71"/><circle class="cls-1" cx="1331.27" cy="442.89" r="8.71"/><circle class="cls-1" cx="1430.81" cy="341.58" r="8.71"/><circle class="cls-1" cx="1348.45" cy="544.21" r="8.71"/><circle class="cls-1" cx="1430.81" cy="498.3" r="8.71"/><circle class="cls-1" cx="1367.1" cy="523.63" r="8.71"/><circle class="cls-1" cx="1408.26" cy="550.54" r="8.71"/><circle class="cls-1" cx="1383.51" cy="561.62" r="8.71"/><circle class="cls-1" cx="1363.93" cy="572.7" r="8.71"/><circle class="cls-1" cx="1476.33" cy="525.21" r="8.71"/><circle class="cls-1" cx="1476.33" cy="555.29" r="8.71"/><path class="cls-1" d="M961.04,892.81c-92.06,0-178.61-35.85-243.7-100.95-65.1-65.1-100.95-151.64-100.95-243.7s35.85-178.61,100.95-243.7c65.1-65.1,151.64-100.95,243.7-100.95s178.61,35.85,243.7,100.95c65.1,65.1,100.95,151.64,100.95,243.7s-35.85,178.61-100.95,243.7-151.64,100.95-243.7,100.95Zm0-682.3c-90.19,0-174.98,35.12-238.75,98.9s-98.9,148.56-98.9,238.75,35.12,174.98,98.9,238.75,148.56,98.89,238.75,98.89,174.98-35.12,238.75-98.89c63.77-63.77,98.89-148.56,98.89-238.75s-35.12-174.98-98.89-238.75c-63.77-63.77-148.57-98.9-238.75-98.9Z"/><g><g><path class="cls-1" d="M844.45,533.58h3.37s14.37,0,14.37,0h2.05s20.53,0,20.53,0h63.66v13.35h-13.35s-50.31,0-50.31,0h-20.53s-2.05,0-2.05,0h-14.37s-1.93,0-1.93,0h-1.44c-33.7,0-61.12,29.25-61.12,65.2,0,35.95,27.42,65.2,61.12,65.2h1.44s38.89,0,38.89,0h9.24s13.35,0,13.35,0v-14.37s0-13.35,0-13.35v-61.6s0-2.05,0-2.05v-11.29s-22.59,0-22.59,0h-31.83s-7.19,0-7.19,0h-1.3c-17.42,0-31.6,16.81-31.6,37.48,0,20.66,14.17,37.48,31.6,37.48h1.3s39.02,0,39.02,0h9.24v13.35h-9.24s-39.02,0-39.02,0h-1.3c-23.63,0-42.85-22.8-42.85-50.82,0-28.02,19.22-50.82,42.85-50.82h1.3s39.02,0,39.02,0h35.94s14.37,0,14.37,0h13.35v13.35s0,116.02,0,116.02h-13.35v-13.35s0-102.67,0-102.67h-14.37s0,13.35,0,13.35v74.95s0,14.37,0,14.37v13.35h-13.35s-13.35,0-13.35,0h-9.24s-38.89,0-38.89,0h-.13s-1.32,0-1.32,0c-40.6,0-73.64-35.24-73.64-78.55s33.03-78.55,73.64-78.55Z"/><path class="cls-1" d="M953.44,695.67h-23.35v-116.02h-4.37v116.02h-81.27c-43.36,0-78.64-37.48-78.64-83.54s35.28-83.55,78.64-83.55h108.99v23.35h-108.99c-30.95,0-56.12,27-56.12,60.2s25.18,60.2,56.12,60.2h57.92v-92.67h-57.9c-14.67,0-26.6,14.57-26.6,32.48s11.93,32.48,26.6,32.48h54.56v23.35h-54.56c-26.39,0-47.85-25.04-47.85-55.82s21.47-55.82,47.85-55.82h108.97v139.37Zm-13.35-10h3.35v-119.37h-98.97c-20.87,0-37.85,20.56-37.85,45.82s16.98,45.82,37.85,45.82h44.56v-3.35h-44.56c-20.18,0-36.6-19.05-36.6-42.48s16.42-42.48,36.6-42.48h67.9v112.67h-67.92c-36.46,0-66.12-31.49-66.12-70.2s29.66-70.2,66.12-70.2h98.99v-3.35h-98.99c-37.85,0-68.64,32.99-68.64,73.55s30.79,73.54,68.64,73.54h71.27v-116.02h24.37v116.02Z"/></g><g><path class="cls-1" d="M1076.05,389.83h-103.99v13.35h103.99c33.7,0,61.12,29.25,61.12,65.2s-27.42,65.2-61.12,65.2h-62.92v-102.67h62.9c17.42,0,31.6,16.81,31.6,37.48s-14.17,37.48-31.6,37.48h-49.56v13.35h49.56c23.63,0,42.85-22.8,42.85-50.82s-19.22-50.82-42.85-50.82h-103.97v129.37h13.35v-116.02h14.37v116.02h76.27c40.6,0,73.64-35.24,73.64-78.55s-33.03-78.55-73.64-78.55Z"/><path class="cls-1" d="M1076.05,551.92h-81.27v-116.02h-4.37v116.02h-23.35v-139.37h108.97c26.38,0,47.85,25.04,47.85,55.82s-21.47,55.82-47.85,55.82h-54.56v-23.35h54.56c14.67,0,26.6-14.57,26.6-32.48s-11.93-32.48-26.6-32.48h-57.9v92.67h57.92c30.95,0,56.12-27,56.12-60.2s-25.18-60.2-56.12-60.2h-108.99v-23.35h108.99c43.36,0,78.64,37.48,78.64,83.55s-35.28,83.55-78.64,83.55Zm-71.27-10h71.27c37.85,0,68.64-32.99,68.64-73.55s-30.79-73.55-68.64-73.55h-98.99v3.35h98.99c36.46,0,66.12,31.49,66.12,70.2s-29.66,70.2-66.12,70.2h-67.92v-112.67h67.9c20.18,0,36.6,19.05,36.6,42.48s-16.42,42.48-36.6,42.48h-44.56v3.35h44.56c20.87,0,37.85-20.56,37.85-45.82s-16.98-45.82-37.85-45.82h-98.97v119.37h3.35v-116.02h24.37v116.02Z"/></g><rect class="cls-1" x="925.85" y="384.7" width="27.72" height="127.32"/><rect class="cls-1" x="966.92" y="568.49" width="27.72" height="127.32"/></g></g></g></svg>