<?xml version="1.0" encoding="utf-8"?>
<!-- Generator: Adobe Illustrator 26.4.1, SVG Export Plug-In . SVG Version: 6.00 Build 0)  -->
<svg version="1.1" id="Layer_1" xmlns="http://www.w3.org/2000/svg" xmlns:xlink="http://www.w3.org/1999/xlink" x="0px" y="0px"
	 viewBox="0 0 880.2 880.2" style="enable-background:new 0 0 880.2 880.2;" xml:space="preserve">
<style type="text/css">
	.st0{fill:#FFFFFF;}
</style>
<g id="Layer_2_00000121260682090878573330000016504077164595068072_">
	<g id="Layer_1-2">
		<g id="Layer_6">
			<g>
				<path class="st0" d="M28.8,390.4c-0.6,0-1-0.4-1-1c0-62.3,26.6-130.6,74.9-192.3c48.7-62.2,115.9-112.8,189.1-142.5
					c73.5-29.8,151.5-37.7,225.5-23c85.1,17,164.4,62.8,235.6,136.3c0.4,0.4,0.4,1,0,1.4s-1,0.4-1.4,0
					C680.6,96.2,601.7,50.5,517,33.6c-73.6-14.7-151.1-6.7-224.3,22.9C219.9,86,153,136.4,104.5,198.4c-48,61.4-74.5,129.2-74.5,191
					C29.8,390,29.4,390.4,28.8,390.4L28.8,390.4z"/>
				<circle class="st0" cx="28.8" cy="393.5" r="6.1"/>
				<circle class="st0" cx="26.8" cy="488.7" r="6.1"/>
				<circle class="st0" cx="136.2" cy="184.8" r="6.1"/>
				<circle class="st0" cx="89.6" cy="255.7" r="6.1"/>
				<circle class="st0" cx="164.6" cy="211.2" r="6.1"/>
				<circle class="st0" cx="288.1" cy="207.1" r="6.1"/>
				<circle class="st0" cx="124" cy="271.9" r="6.1"/>
				<circle class="st0" cx="79.5" cy="549.5" r="6.1"/>
				<circle class="st0" cx="144.3" cy="727.8" r="6.1"/>
				<circle class="st0" cx="211.2" cy="782.5" r="6.1"/>
				<circle class="st0" cx="290.2" cy="784.5" r="6.1"/>
				<circle class="st0" cx="476.6" cy="851.4" r="6.1"/>
				<circle class="st0" cx="109.9" cy="365.1" r="6.1"/>
				<circle class="st0" cx="128.1" cy="496.8" r="6.1"/>
				<circle class="st0" cx="142.3" cy="598.1" r="6.1"/>
				<circle class="st0" cx="111.9" cy="624.5" r="6.1"/>
				<circle class="st0" cx="103.8" cy="442.1" r="6.1"/>
				<circle class="st0" cx="148.3" cy="371.2" r="6.1"/>
				<circle class="st0" cx="140.2" cy="442.1" r="6.1"/>
				<circle class="st0" cx="241.5" cy="247.6" r="6.1"/>
				<circle class="st0" cx="267.9" cy="302.3" r="6.1"/>
				<circle class="st0" cx="525.2" cy="213.2" r="6.1"/>
				
					<ellipse transform="matrix(0.9239 -0.3827 0.3827 0.9239 -57.7501 218.2844)" class="st0" cx="519.8" cy="254.3" rx="6.1" ry="6.1"/>
				<circle class="st0" cx="474.5" cy="225.3" r="6.1"/>
				<circle class="st0" cx="304.4" cy="265.9" r="6.1"/>
				<circle class="st0" cx="571.8" cy="259.8" r="6.1"/>
				<circle class="st0" cx="654.9" cy="389.4" r="6.1"/>
				<circle class="st0" cx="628.5" cy="620.4" r="6.1"/>
				<circle class="st0" cx="701.5" cy="444.2" r="6.1"/>
				<circle class="st0" cx="642.7" cy="535.3" r="6.1"/>
				<circle class="st0" cx="201" cy="409.7" r="6.1"/>
				<circle class="st0" cx="553.6" cy="201" r="6.1"/>
				<circle class="st0" cx="225.3" cy="391.5" r="6.1"/>
				<circle class="st0" cx="223.3" cy="490.8" r="6.1"/>
				<circle class="st0" cx="239.5" cy="571.8" r="6.1"/>
				<circle class="st0" cx="276" cy="616.4" r="6.1"/>
				<circle class="st0" cx="201" cy="466.4" r="6.1"/>
				<circle class="st0" cx="332.7" cy="675.1" r="6.1"/>
				<circle class="st0" cx="375.3" cy="691.3" r="6.1"/>
				<circle class="st0" cx="539.4" cy="681.2" r="6.1"/>
				<circle class="st0" cx="186.8" cy="561.7" r="6.1"/>
				<circle class="st0" cx="249.7" cy="644.7" r="6.1"/>
				<circle class="st0" cx="681.2" cy="618.4" r="6.1"/>
				<circle class="st0" cx="543.4" cy="744" r="6.1"/>
				<circle class="st0" cx="148.3" cy="563.7" r="6.1"/>
				<circle class="st0" cx="184.8" cy="660.9" r="6.1"/>
				<circle class="st0" cx="259.8" cy="701.5" r="6.1"/>
				<circle class="st0" cx="320.6" cy="733.9" r="6.1"/>
				<circle class="st0" cx="401.6" cy="756.2" r="6.1"/>
				<circle class="st0" cx="245.6" cy="95.7" r="6.1"/>
				<circle class="st0" cx="197" cy="152.4" r="6.1"/>
				<circle class="st0" cx="267.9" cy="103.8" r="6.1"/>
				<circle class="st0" cx="322.6" cy="101.7" r="6.1"/>
				<circle class="st0" cx="406.8" cy="87.8" r="6.1"/>
				<circle class="st0" cx="579.9" cy="91.6" r="6.1"/>
				<circle class="st0" cx="654.9" cy="130.1" r="6.1"/>
				<circle class="st0" cx="774.4" cy="403.6" r="6.1"/>
				<circle class="st0" cx="312.5" cy="126.1" r="6.1"/>
				<circle class="st0" cx="496.8" cy="148.3" r="6.1"/>
				<circle class="st0" cx="355" cy="154.4" r="6.1"/>
				<circle class="st0" cx="296.2" cy="178.7" r="6.1"/>
				<circle class="st0" cx="245.6" cy="162.5" r="6.1"/>
				<circle class="st0" cx="328.7" cy="61.2" r="6.1"/>
				<circle class="st0" cx="756.2" cy="172.7" r="6.1"/>
				<circle class="st0" cx="821" cy="282.1" r="6.1"/>
				<circle class="st0" cx="740" cy="247.6" r="6.1"/>
				<circle class="st0" cx="717.7" cy="284.1" r="6.1"/>
				<circle class="st0" cx="752.1" cy="387.4" r="6.1"/>
				<circle class="st0" cx="727.8" cy="523.2" r="6.1"/>
				<circle class="st0" cx="740" cy="444.2" r="6.1"/>
				<circle class="st0" cx="586" cy="180.8" r="6.1"/>
				<circle class="st0" cx="688.8" cy="184.4" r="6.1"/>
				<circle class="st0" cx="723.7" cy="346.9" r="6.1"/>
				<circle class="st0" cx="680.2" cy="339.5" r="6.1"/>
				<circle class="st0" cx="594.3" cy="229.7" r="6.1"/>
				<circle class="st0" cx="630.5" cy="292.2" r="6.1"/>
				<circle class="st0" cx="804.8" cy="634.6" r="6.1"/>
				<circle class="st0" cx="717.7" cy="663" r="6.1"/>
				<circle class="st0" cx="774.4" cy="492.8" r="6.1"/>
				<circle class="st0" cx="663" cy="717.7" r="6.1"/>
				<circle class="st0" cx="592.1" cy="782.5" r="6.1"/>
				
					<ellipse transform="matrix(0.7071 -0.7071 0.7071 0.7071 -422.8243 596.8286)" class="st0" cx="509" cy="808.8" rx="6.1" ry="6.1"/>
				<circle class="st0" cx="367.2" cy="808.8" r="6.1"/>
				<circle class="st0" cx="727.8" cy="737.9" r="6.1"/>
				<circle class="st0" cx="569.8" cy="831.1" r="6.1"/>
				<circle class="st0" cx="835.2" cy="436" r="6.1"/>
				<circle class="st0" cx="829.1" cy="525.2" r="6.1"/>
				<path class="st0" d="M140.2,181.8c-0.2,0-0.5-0.1-0.7-0.2c-0.4-0.4-0.5-1-0.1-1.4c34.6-39.4,66.9-65.9,101.6-83.3
					c0.5-0.2,1.1,0,1.3,0.4c0.2,0.5,0,1.1-0.4,1.3c-34.5,17.3-66.6,43.6-101,82.9C140.8,181.7,140.5,181.8,140.2,181.8L140.2,181.8z
					"/>
				<path class="st0" d="M835.2,431c-0.6,0-1-0.4-1-1c0-113.8-58.8-230.3-153.4-303.9c-45.6-35.5-97.1-59.6-153.1-71.6
					C466.5,41.4,401.6,43.3,335,60.2c-0.5,0.1-1.1-0.2-1.2-0.7s0.2-1.1,0.7-1.2c66.9-16.9,132.1-18.9,193.6-5.7
					c56.3,12,108,36.3,153.9,72c95.1,74,154.1,191.1,154.1,305.5C836.2,430.6,835.8,431,835.2,431L835.2,431z"/>
				<path class="st0" d="M806.8,631.5c-0.1,0-0.3,0-0.4-0.1c-0.5-0.2-0.7-0.8-0.5-1.3c39.7-80.7,47.3-156.5,46.7-206
					c-0.7-55.4-12.4-108-30.5-137.5c-0.3-0.5-0.1-1.1,0.3-1.4c0.5-0.3,1.1-0.1,1.4,0.3C845.7,321,854,380.3,854.6,424
					c0.6,49.7-7,125.9-46.9,206.9C807.5,631.3,807.2,631.5,806.8,631.5L806.8,631.5z"/>
				<path class="st0" d="M271.9,102.7c-0.4,0-0.7-0.2-0.9-0.6c-0.2-0.5,0-1.1,0.5-1.3c47-22.3,91.6-35,136.6-38.9
					c55.9-4.8,111.5,4,170.1,26.6c0.5,0.2,0.8,0.8,0.6,1.3s-0.8,0.8-1.3,0.6c-58.3-22.6-113.7-31.2-169.2-26.5
					c-44.7,3.8-89.1,16.5-135.9,38.7C272.2,102.7,272,102.7,271.9,102.7z"/>
				<path class="st0" d="M168.6,208.1c-0.2,0-0.5-0.1-0.7-0.3c-0.4-0.4-0.4-1,0-1.4c46.2-48.2,61.8-64.4,150.2-103.5
					c0.5-0.2,1.1,0,1.3,0.5s0,1.1-0.5,1.3c-88.1,38.9-103.6,55.1-149.6,103.1C169.1,208,168.9,208.1,168.6,208.1L168.6,208.1z"/>
				<path class="st0" d="M685.2,181.7c-0.3,0-0.6-0.1-0.8-0.3c-43.5-50.2-104.7-74.5-148.4-86c-37.8-10-92.8-17.1-124.1-8.9
					c-0.5,0.1-1.1-0.2-1.2-0.7s0.2-1.1,0.7-1.2c12.3-3.2,30.6-4.3,51.6-3.1c23.6,1.3,49,5.5,73.5,12c44,11.6,105.6,36.1,149.4,86.6
					c0.4,0.4,0.3,1-0.1,1.4C685.7,181.6,685.4,181.7,685.2,181.7L685.2,181.7z"/>
				<path class="st0" d="M596.1,783.5c-0.5,0-0.9-0.3-1-0.8s0.2-1.1,0.8-1.2c22.3-4.7,64.8-31.5,109.3-80.9
					c48.9-54.1,84.8-119.1,101.1-182.9c16.1-62.9,14.2-125.3-5.8-185.3c-23.5-70.5-72-137.7-144.2-199.6c-0.4-0.4-0.5-1-0.1-1.4
					s1-0.5,1.4-0.1c72.5,62.1,121.2,129.6,144.8,200.5c20.1,60.4,22.1,123.1,5.9,186.4c-16.4,64.1-52.5,129.3-101.6,183.7
					c-44.9,49.7-87.8,76.8-110.4,81.5C596.2,783.5,596.2,783.5,596.1,783.5L596.1,783.5z"/>
				<path class="st0" d="M721.7,659.9c-0.2,0-0.4-0.1-0.6-0.2c-0.4-0.3-0.5-1-0.2-1.4c10.7-13.7,45.2-68.8,63.1-139.7
					c11-43.5,14.2-86.3,9.6-127.1c-5.7-50.3-23.3-97.8-52.5-141.3c-0.3-0.5-0.2-1.1,0.3-1.4s1.1-0.2,1.4,0.3
					c29.3,43.8,47.1,91.6,52.8,142.2c4.6,41.1,1.4,84.1-9.7,127.9c-18,71.2-52.7,126.6-63.5,140.4
					C722.3,659.8,722,659.9,721.7,659.9L721.7,659.9z"/>
				<path class="st0" d="M774.4,400.5h-0.2c-0.5-0.1-0.9-0.7-0.7-1.2c1.6-6.6-2.5-36.4-19.7-78.2c-14.1-34.2-40.2-84.1-84.9-127.5
					c-39.5-38.3-86-64.4-138.5-77.5c-63.1-15.8-135-12.8-213.6,9c-0.5,0.1-1.1-0.2-1.2-0.7s0.2-1.1,0.7-1.2
					c78.9-21.9,151.1-24.9,214.6-9c52.8,13.2,99.6,39.5,139.4,78c45,43.7,71.3,93.8,85.4,128.2c9.3,22.6,14.2,40.5,16.7,51.5
					c3,13.1,4.1,23.6,3,28C775.3,400.2,774.9,400.5,774.4,400.5L774.4,400.5z"/>
				<path class="st0" d="M77.4,548.5c-0.4,0-0.7-0.2-0.9-0.6c-21.3-46.7-22.1-123.7-2.1-201c10.3-39.8,25.8-77.7,44.9-109.6
					c21.3-35.7,46.5-63.8,75.1-83.7c0.5-0.3,1.1-0.2,1.4,0.2c0.3,0.5,0.2,1.1-0.2,1.4c-28.3,19.7-53.4,47.6-74.5,83.1
					c-19,31.8-34.4,69.6-44.7,109.1c-19.9,76.9-19.2,153.4,2,199.7c0.2,0.5,0,1.1-0.5,1.3C77.7,548.5,77.5,548.5,77.4,548.5z"/>
				<path class="st0" d="M109.9,364.1h-0.2c-0.5-0.1-0.9-0.6-0.8-1.2c8.4-47.4,38-120.1,132-197.1c0.4-0.3,1.1-0.3,1.4,0.1
					c0.4,0.4,0.3,1.1-0.1,1.4c-93.4,76.6-123,148.8-131.2,195.9C110.8,363.8,110.4,364.1,109.9,364.1L109.9,364.1z"/>
				<path class="st0" d="M128.1,497.8c-0.5,0-0.9-0.4-1-0.9c-11.3-83.2,3.7-161.2,43.6-225.5c36.1-58.2,92.2-103.7,157.9-128.1
					c66.6-24.7,140.1-26.8,206.9-5.8c73.6,23.1,136.9,72.9,183,144c0.3,0.5,0.2,1.1-0.3,1.4s-1.1,0.2-1.4-0.3
					C671,211.9,608,162.4,534.8,139.4c-66.4-20.9-139.4-18.8-205.6,5.8c-65.3,24.2-121,69.4-156.9,127.3
					c-39.6,63.9-54.6,141.4-43.3,224.2C129.1,497.2,128.7,497.8,128.1,497.8C128.2,497.8,128.1,497.8,128.1,497.8L128.1,497.8z"/>
				<path class="st0" d="M359.1,153.4c-0.4,0-0.8-0.3-1-0.7c-0.2-0.5,0.1-1.1,0.7-1.2c47.1-14,90.4-16,132.2-6.1
					c0.5,0.1,0.9,0.7,0.7,1.2c-0.1,0.5-0.7,0.9-1.2,0.7c-41.5-9.8-84.4-7.8-131.2,6.1H359.1L359.1,153.4z"/>
				<path class="st0" d="M723.7,345.9c-0.4,0-0.8-0.3-1-0.7c-29.6-91.1-89.9-139.2-135.2-163.5c-0.5-0.3-0.7-0.9-0.4-1.4
					s0.9-0.7,1.4-0.4c45.7,24.5,106.4,72.9,136.2,164.7c0.2,0.5-0.1,1.1-0.6,1.3L723.7,345.9L723.7,345.9z"/>
				
					<rect x="619.5" y="78.4" transform="matrix(0.5355 -0.8445 0.8445 0.5355 214.926 570.6661)" class="st0" width="13.6" height="23.1"/>
				
					<rect x="377.7" y="57.2" transform="matrix(0.997 -7.758796e-02 7.758796e-02 0.997 -3.8736 30.9028)" class="st0" width="36.1" height="16.2"/>
				
					<rect x="418.6" y="55.1" transform="matrix(0.9994 -3.524759e-02 3.524759e-02 0.9994 -1.9589 15.2877)" class="st0" width="28" height="16.2"/>
				
					<rect x="461.3" y="46.2" transform="matrix(3.647050e-02 -0.9993 0.9993 3.647050e-02 389.194 529.9938)" class="st0" width="16.2" height="34"/>
				
					<rect x="498.1" y="53.9" transform="matrix(0.109 -0.994 0.994 0.109 384.4139 562.9035)" class="st0" width="16.2" height="26.2"/>
				
					<rect x="537.2" y="78.7" transform="matrix(0.3148 -0.9492 0.9492 0.3148 282.0053 583.6963)" class="st0" width="16.2" height="35.6"/>
				
					<rect x="709.4" y="174.1" transform="matrix(0.7546 -0.6562 0.6562 0.7546 50.1423 517.924)" class="st0" width="16.2" height="35.6"/>
				
					<rect x="754.8" y="236" transform="matrix(0.8258 -0.564 0.564 0.8258 -7.576 473.6571)" class="st0" width="16.2" height="26.2"/>
				
					<rect x="575.8" y="96.2" transform="matrix(0.3756 -0.9268 0.9268 0.3756 260.7901 611.0929)" class="st0" width="16.2" height="31.6"/>
				
					<rect x="608.8" y="114.8" transform="matrix(0.434 -0.9009 0.9009 0.434 234.8886 627.5364)" class="st0" width="16.2" height="24.1"/>
				
					<rect x="288.3" y="146.6" transform="matrix(0.9058 -0.4237 0.4237 0.9058 -37.106 142.5122)" class="st0" width="27.3" height="16.2"/>
				
					<rect x="316.6" y="177.1" transform="matrix(0.9242 -0.3819 0.3819 0.9242 -45.6853 140.1625)" class="st0" width="27.3" height="16.2"/>
				
					<rect x="296.2" y="227.4" transform="matrix(0.866 -0.5 0.5 0.866 -76.2327 186.4726)" class="st0" width="27.3" height="16.2"/>
				
					<rect x="119.9" y="284.3" transform="matrix(0.5 -0.866 0.866 0.5 -186.3321 262.0479)" class="st0" width="27.7" height="16.2"/>
				
					<rect x="49.6" y="420.7" transform="matrix(4.971952e-02 -0.9988 0.9988 4.971952e-02 -368.6814 470.2035)" class="st0" width="26.3" height="16.2"/>
				
					<rect x="97.2" y="454.2" transform="matrix(0.9954 -9.584539e-02 9.584539e-02 0.9954 -44.2004 12.1955)" class="st0" width="15.3" height="24"/>
				
					<rect x="158" y="545.4" transform="matrix(0.9098 -0.415 0.415 0.9098 -216.3816 119.0118)" class="st0" width="15.3" height="24"/>
				
					<rect x="172.6" y="573.6" transform="matrix(0.8856 -0.4645 0.4645 0.8856 -251.8748 150.9219)" class="st0" width="15.6" height="26.1"/>
				
					<rect x="220.4" y="665" transform="matrix(0.7071 -0.7071 0.7071 0.7071 -411.3581 359.4265)" class="st0" width="15.6" height="22.6"/>
				
					<rect x="572.1" y="804.9" transform="matrix(0.9303 -0.3667 0.3667 0.9303 -256.892 270.4248)" class="st0" width="22.6" height="13"/>
				
					<rect x="643.5" y="762.2" transform="matrix(0.8148 -0.5797 0.5797 0.8148 -323.1437 525.6959)" class="st0" width="35.6" height="13"/>
				
					<rect x="755.9" y="550.9" transform="matrix(0.3553 -0.9348 0.9348 0.3553 -23.2314 1083.2499)" class="st0" width="35.6" height="15.1"/>
				
					<rect x="647.7" y="654.3" transform="matrix(0.6811 -0.7322 0.7322 0.6811 -271.611 700.0447)" class="st0" width="40.3" height="15.1"/>
				
					<rect x="589.5" y="735.2" transform="matrix(0.8374 -0.5465 0.5465 0.8374 -308.1188 449.5934)" class="st0" width="24.5" height="15.1"/>
				
					<rect x="617.4" y="715.2" transform="matrix(0.7872 -0.6168 0.6168 0.7872 -311.1274 544.0313)" class="st0" width="30.4" height="15.1"/>
				
					<rect x="652.3" y="688.3" transform="matrix(0.7071 -0.7071 0.7071 0.7071 -297.1629 674.2287)" class="st0" width="26" height="15.1"/>
				
					<rect x="715.6" y="559.5" transform="matrix(0.3991 -0.9169 0.9169 0.3991 -80.2087 1011.6296)" class="st0" width="32.3" height="15.1"/>
				
					<rect x="750.5" y="398.9" transform="matrix(0.9954 -9.584539e-02 9.584539e-02 0.9954 -36.2907 74.567)" class="st0" width="15.1" height="32.3"/>
				<rect x="752.1" y="439.4" class="st0" width="16.3" height="23"/>
				
					<rect x="745.4" y="476.1" transform="matrix(0.1502 -0.9887 0.9887 0.1502 165.3419 1160.9335)" class="st0" width="25.1" height="16.3"/>
				
					<rect x="740.7" y="507.6" transform="matrix(0.2183 -0.9759 0.9759 0.2183 84.7012 1137.1489)" class="st0" width="23" height="16.3"/>
				
					<rect x="190.9" y="602" transform="matrix(0.8435 -0.5372 0.5372 0.8435 -299.2831 203.013)" class="st0" width="15.7" height="26.1"/>
				
					<rect x="101.4" y="482.6" transform="matrix(0.9881 -0.1538 0.1538 0.9881 -74.9581 22.667)" class="st0" width="15.3" height="26.4"/>
				
					<rect x="107.3" y="513" transform="matrix(0.9787 -0.2055 0.2055 0.9787 -105.5094 34.8316)" class="st0" width="15.3" height="24.7"/>
				
					<rect x="336" y="734.5" transform="matrix(0.3553 -0.9348 0.9348 0.3553 -477.5082 801.2797)" class="st0" width="12.2" height="24.7"/>
				
					<rect x="367.4" y="743.1" transform="matrix(0.2243 -0.9745 0.9745 0.2243 -445.271 951.5441)" class="st0" width="15.3" height="24.7"/>
				
					<rect x="459.9" y="788.1" transform="matrix(0.9986 -5.216367e-02 5.216367e-02 0.9986 -40.8957 25.9288)" class="st0" width="32.8" height="16.7"/>
				<rect x="425.5" y="790.2" class="st0" width="28.8" height="14.7"/>
				
					<rect x="394.2" y="777.4" transform="matrix(8.072373e-02 -0.9967 0.9967 8.072373e-02 -422.4768 1131.5621)" class="st0" width="16.1" height="34.9"/>
				
					<rect x="54.4" y="450.1" transform="matrix(0.9988 -4.971954e-02 4.971954e-02 0.9988 -23.16 3.6856)" class="st0" width="16.2" height="34.5"/>
				
					<rect x="58.5" y="490.8" transform="matrix(0.9881 -0.1538 0.1538 0.9881 -77.1854 16.2714)" class="st0" width="16.2" height="32.4"/>
				
					<rect x="139.1" y="257.5" transform="matrix(0.5391 -0.8423 0.8423 0.5391 -154.0343 249.7422)" class="st0" width="24.1" height="16.2"/>
				
					<rect x="157.5" y="231.3" transform="matrix(0.5704 -0.8213 0.8213 0.5704 -123.7702 242.0534)" class="st0" width="24.1" height="16.2"/>
				
					<rect x="193" y="273.4" transform="matrix(0.5704 -0.8213 0.8213 0.5704 -141.8251 290.3494)" class="st0" width="27.4" height="14.8"/>
				
					<rect x="169.9" y="303.5" transform="matrix(0.5 -0.866 0.866 0.5 -177.2614 317.4314)" class="st0" width="32.7" height="17.5"/>
				
					<rect x="67.4" y="318.5" transform="matrix(0.2723 -0.9622 0.9622 0.2723 -254.7505 316.3573)" class="st0" width="28.7" height="16.2"/>
				
					<rect x="320.2" y="132.2" transform="matrix(0.9505 -0.3108 0.3108 0.9505 -26.8147 112.3389)" class="st0" width="37.8" height="16.2"/>
				
					<rect x="363.1" y="122.4" transform="matrix(0.969 -0.2472 0.2472 0.969 -20.583 97.0459)" class="st0" width="26.2" height="16.2"/>
				<path class="st0" d="M447.3,838.5c-53.3,0-107.3-11.1-158.7-32.8c-69.5-29.4-129.3-75.9-173.1-134.6
					C74.7,616.4,49.6,552.3,43,485.9c-7.4-74,7.3-150.2,43.6-226.5c0.2-0.5,0.8-0.7,1.3-0.5s0.7,0.8,0.5,1.3
					c-36.2,76-50.8,151.8-43.5,225.5c6.6,66.1,31.5,129.8,72.1,184.2c43.5,58.4,103.1,104.7,172.2,133.9
					c69.9,29.5,144.5,39.3,215.7,28.2c69.3-10.8,131.5-40.2,184.9-87.6C749,692,794.8,619.5,826,528.9c0.2-0.5,0.7-0.8,1.3-0.6
					c0.5,0.2,0.8,0.7,0.6,1.3c-31.3,90.9-77.3,163.7-136.8,216.3c-53.7,47.6-116.3,77.2-185.9,88.1
					C486.2,837,466.8,838.5,447.3,838.5L447.3,838.5z"/>
				<path class="st0" d="M148.3,372.2h-0.2c-0.5-0.1-0.9-0.6-0.8-1.1c16.2-99.3,113.8-181,144.6-191.2c0.5-0.2,1.1,0.1,1.3,0.6
					s-0.1,1.1-0.6,1.3c-30.5,10.1-127.2,91.1-143.2,189.6C149.2,371.9,148.8,372.2,148.3,372.2z"/>
				<path class="st0" d="M453.5,799L453.5,799c-78.2,0-157.3-25-222.8-70.3c-66.5-46-113.1-108.8-134.9-181.5
					c-11.9-39.7-16.2-82.1-12.7-125.9c3.7-47,16.5-96.1,37.9-145.7c0.2-0.5,0.8-0.7,1.3-0.5s0.7,0.8,0.5,1.3
					c-21.3,49.5-34,98.3-37.7,145.1c-3.5,43.5,0.8,85.7,12.6,125.2c21.6,72.3,68,134.7,134.1,180.4c65.1,45.1,143.9,69.9,221.6,69.9
					l0,0c39.4,0,76.8-6.4,111.3-19c36.3-13.3,68.4-33.1,95.3-59c0.4-0.4,1-0.4,1.4,0s0.4,1,0,1.4c-27.1,26.1-59.4,46.1-96,59.5
					C530.9,792.6,493.2,799,453.5,799L453.5,799z"/>
				<path class="st0" d="M140.3,724.8c-0.3,0-0.5-0.1-0.7-0.3c-23.9-26.6-48.8-56.5-69-94.7C49.7,590.4,35.5,546.3,25.9,491
					c-0.1-0.5,0.3-1.1,0.8-1.2s1.1,0.3,1.2,0.8c9.5,55.1,23.7,99,44.5,138.2c20.2,37.9,45,67.7,68.8,94.3c0.4,0.4,0.3,1-0.1,1.4
					C140.8,724.7,140.5,724.8,140.3,724.8z"/>
				<path class="st0" d="M140.3,595.1c-0.4,0-0.7-0.2-0.9-0.6c-17.6-37.5-36.6-104.1-36.6-146.3c0-0.6,0.4-1,1-1s1,0.4,1,1
					c0,42,18.9,108.2,36.4,145.5c0.2,0.5,0,1.1-0.5,1.3C140.6,595.1,140.4,595.1,140.3,595.1L140.3,595.1z"/>
				<circle class="st0" cx="290.4" cy="559" r="6.1"/>
				<circle class="st0" cx="243.3" cy="409.1" r="6.1"/>
				
					<rect x="234.9" y="447" transform="matrix(0.9761 -0.2171 0.2171 0.9761 -94.1281 63.6323)" class="st0" width="15.3" height="26.4"/>
				
					<rect x="248.5" y="493" transform="matrix(0.9293 -0.3693 0.3693 0.9293 -168.5072 130.3236)" class="st0" width="15.3" height="24.7"/>
				<path class="st0" d="M288.1,556.1c-0.2,0-0.5-0.1-0.6-0.2c-21.2-18-60.6-95.7-46.1-144.2c0.2-0.5,0.7-0.8,1.2-0.7
					c0.5,0.2,0.8,0.7,0.7,1.2c-8.3,27.9,2.4,63.4,9.5,82c9.9,25.9,24.7,50.6,36,60.1c0.4,0.4,0.5,1,0.1,1.4
					C288.7,556,288.4,556.1,288.1,556.1z"/>
				<path class="st0" d="M440,853.5c-45.6,0-88.3-5.9-127.3-17.6c-47.6-14.3-79.6-34.3-98.1-48.5c-0.4-0.3-0.5-1-0.2-1.4
					s1-0.5,1.4-0.2c18.3,14.1,50.1,34,97.5,48.2c48.5,14.5,102.7,20.1,161.2,16.4c0.6,0,1,0.4,1.1,0.9s-0.4,1-0.9,1.1
					C462.9,853.1,451.3,853.5,440,853.5z"/>
				<path class="st0" d="M573.8,832.1c-0.4,0-0.8-0.3-1-0.7c-0.2-0.5,0.1-1.1,0.7-1.3c73.4-23.1,121.7-63,151.6-91
					c0.4-0.4,1-0.4,1.4,0s0.4,1,0,1.4c-20.6,19.2-40.8,35.2-61.7,48.7c-28.3,18.3-58.8,32.7-90.6,42.7
					C574,832.1,573.9,832.1,573.8,832.1L573.8,832.1z"/>
				<path class="st0" d="M288.1,785.5c-0.1,0-0.2,0-0.4-0.1c-38.1-14.9-71.5-36.5-101.8-66c-28.5-27.7-51.8-59.8-72.8-90.3
					c-0.3-0.5-0.2-1.1,0.3-1.4s1.1-0.2,1.4,0.3c20.9,30.5,44.2,62.5,72.6,90c30.2,29.3,63.3,50.8,101.2,65.6
					c0.5,0.2,0.8,0.8,0.6,1.3C288.9,785.3,288.5,785.5,288.1,785.5L288.1,785.5z"/>
				<path class="st0" d="M440.7,818.2c-39.4,0-69.3-6.2-69.8-6.3s-0.9-0.6-0.8-1.2c0.1-0.5,0.6-0.9,1.2-0.8c0.7,0.1,67.5,14,133.3,0
					c0.5-0.1,1.1,0.2,1.2,0.8c0.1,0.5-0.2,1.1-0.8,1.2C482.9,816.6,460.6,818.2,440.7,818.2L440.7,818.2z"/>
				<path class="st0" d="M186.8,560.6c-0.4,0-0.7-0.2-0.9-0.6c-1-2-84.4-206.6,53-313.2c0.4-0.3,1.1-0.3,1.4,0.2
					c0.3,0.4,0.3,1.1-0.2,1.4c-30.8,23.9-52.8,55-65.4,92.2c-10.1,29.9-14.2,63.9-12.2,101c3.6,65.1,25,117.2,25.2,117.6
					c0.2,0.5,0,1.1-0.4,1.3C187.1,560.6,187,560.6,186.8,560.6L186.8,560.6z"/>
				<circle class="st0" cx="623.1" cy="515.3" r="6.1"/>
				
					<rect x="621" y="469.9" transform="matrix(0.1502 -0.9887 0.9887 0.1502 67.4086 1033.1228)" class="st0" width="27.4" height="14.8"/>
				
					<rect x="624.6" y="423.8" transform="matrix(0.1004 -0.9949 0.9949 0.1004 146.2296 1026.8917)" class="st0" width="32.7" height="17.5"/>
				<path class="st0" d="M624.8,515.2c-0.1,0-0.2,0-0.3-0.1c-0.5-0.2-0.8-0.8-0.6-1.3c12-34.2,16.8-67.3,14.2-98.5
					c-2.2-26.7-9.8-52.1-22.6-75.5c-27.2-49.5-72.8-79.5-96.5-85c-0.5-0.1-0.9-0.7-0.7-1.2c0.1-0.5,0.7-0.9,1.2-0.7
					c24.1,5.6,70.3,36,97.8,86c12.9,23.6,20.6,49.2,22.9,76.2c2.6,31.5-2.2,64.9-14.3,99.3C625.6,514.9,625.2,515.2,624.8,515.2
					L624.8,515.2z"/>
				<path class="st0" d="M454.9,781.3c-52,0-97.6-12.1-130.3-24.3c-57.7-21.5-108.2-55.5-138.6-93.4c-0.3-0.4-0.3-1.1,0.2-1.4
					c0.4-0.3,1.1-0.3,1.4,0.2c30.1,37.6,80.3,71.4,137.7,92.8c45.3,16.8,115.5,33.6,192.9,17.9c85.6-17.4,199.3-79.8,255.2-278.5
					c0.1-0.5,0.7-0.8,1.2-0.7c0.5,0.2,0.8,0.7,0.7,1.2C719.1,694.8,604.6,757.5,518.5,775C496.7,779.5,475.3,781.3,454.9,781.3z"/>
				<path class="st0" d="M257.8,700.4c-0.2,0-0.4-0.1-0.6-0.2c-48.4-36.4-83.4-71.2-107.7-132.1c-0.2-0.5,0-1.1,0.6-1.3
					c0.5-0.2,1.1,0,1.3,0.6c24.2,60.5,58.9,95.1,107.1,131.3c0.4,0.3,0.5,1,0.2,1.4C258.4,700.3,258.1,700.4,257.8,700.4
					L257.8,700.4z"/>
				<path class="st0" d="M443.9,741.1c-33.6,0-66-5.1-96.7-15.3c-38.3-12.8-73.4-33.2-104.2-60.7c-32.1-28.7-58.7-64.6-77-104
					c-17.5-37.6-26.7-76.7-26.7-112.9c0-0.6,0.4-1,1-1s1,0.4,1,1c0,36,9.2,74.7,26.5,112.1c18.2,39.1,44.7,74.8,76.5,103.3
					c30.6,27.3,65.4,47.6,103.5,60.3c42.1,14,87.4,18.4,134.7,13c31.5-3.6,65.1-15.1,97.4-33.3c37.4-21.1,71.2-50,100.6-85.9
					c0.3-0.4,1-0.5,1.4-0.1c0.4,0.3,0.5,1,0.1,1.4c-29.5,36.1-63.5,65.1-101.1,86.4c-32.5,18.3-66.4,29.9-98.1,33.5
					C469.6,740.4,456.6,741.1,443.9,741.1L443.9,741.1z"/>
				<path class="st0" d="M397.6,757.2c-40.7,0-66.2-11.1-75.7-20.6c-0.4-0.4-0.4-1,0-1.4s1-0.4,1.4,0c9.2,9.2,34.2,20,74.3,20
					c0.6,0,1,0.4,1,1S398.2,757.2,397.6,757.2L397.6,757.2z"/>
				<path class="st0" d="M449.5,718.9c-5.7,0-11.3-0.2-17-0.5c-30.2-1.9-60.9-8.7-91.4-20.4c-54.7-20.9-89.8-50.1-90.1-50.4
					c-0.4-0.4-0.5-1-0.1-1.4s1-0.5,1.4-0.1c0.3,0.3,35.2,29.3,89.6,50.1c30.3,11.6,60.8,18.4,90.8,20.3c37.2,2.3,73.6-3,108.3-15.8
					c10.4-3.9,37.9-15.3,68.3-37.8c42-31,72.6-69.9,91.2-115.7c22.7-55.7,26.5-119.6,10.8-180c-8-30.9-20.8-59.6-38-85.5
					c-18.2-27.3-40.9-50.7-67.6-69.6c-44.6-31.6-97.8-48.9-153.8-50s-111,14.1-159.1,44c-0.5,0.3-1.1,0.1-1.4-0.3
					c-0.3-0.5-0.1-1.1,0.3-1.4c48.4-30.1,103.8-45.4,160.2-44.3s109.9,18.5,154.9,50.4c26.9,19,49.8,42.6,68.1,70.1
					c17.4,26,30.3,55,38.3,86.1c15.8,60.8,11.9,125.2-10.9,181.3c-18.7,46.1-49.6,85.3-91.9,116.5c-30.6,22.6-58.3,34.1-68.8,38
					C512,713.4,481.1,718.9,449.5,718.9L449.5,718.9z"/>
				<path class="st0" d="M545.5,745c-0.4,0-0.8-0.3-1-0.7c-0.1-0.5,0.2-1.1,0.7-1.2c31.5-8.7,64.8-28.2,96.3-56.4
					c31.4-28.1,58.9-62.8,79.5-100.6c37.7-68.9,48.4-139.3,30.2-198.4c-0.2-0.5,0.1-1.1,0.7-1.3c0.5-0.2,1.1,0.1,1.3,0.7
					c18.4,59.6,7.7,130.6-30.3,200C702.1,625,674.5,660,643,688.2c-31.7,28.4-65.3,48-97.1,56.8C545.7,745,545.6,745,545.5,745
					L545.5,745z"/>
				<path class="st0" d="M729.9,520.1c-0.1,0-0.3,0-0.4-0.1c-0.5-0.2-0.7-0.8-0.5-1.3c3.8-7.6,10-43.7,10-70.5c0-0.6,0.4-1,1-1
					s1,0.4,1,1c0,27.5-6.3,63.4-10.2,71.3C730.6,519.9,730.3,520.1,729.9,520.1L729.9,520.1z"/>
				<circle class="st0" cx="325" cy="592.8" r="6.1"/>
				<circle class="st0" cx="424.5" cy="638.6" r="6.1"/>
				<path class="st0" d="M421.7,639.3L421.7,639.3c-21.7-0.8-66.9-13.5-96.1-44.4c-0.4-0.4-0.4-1,0-1.4s1-0.4,1.4,0
					c29.9,31.6,76.7,43.1,94.7,43.8c0.6,0,1,0.5,1,1C422.7,638.9,422.2,639.3,421.7,639.3L421.7,639.3z"/>
				<path class="st0" d="M225.4,388.5c-0.6,0-1-0.4-1-1c0-15.1,5.3-46.1,40.8-83.8c0.4-0.4,1-0.4,1.4,0s0.4,1,0,1.4
					c-35,37.1-40.2,67.6-40.2,82.4C226.4,388.1,226,388.5,225.4,388.5L225.4,388.5z"/>
				<path class="st0" d="M677.6,334.6c-0.4,0-0.7-0.2-0.9-0.6c-18.2-37.9-50.7-78.8-80.8-101.7c-0.4-0.3-0.5-1-0.2-1.4
					s1-0.5,1.4-0.2c30.3,23.1,63,64.3,81.4,102.5c0.2,0.5,0,1.1-0.5,1.3C677.9,334.6,677.7,334.6,677.6,334.6z"/>
				<path class="st0" d="M328.7,674.1c-0.1,0-0.3,0-0.4-0.1c-48.6-19.7-88.4-56.2-114.9-105.7c-24.9-46.2-36.3-101.2-32.3-154.9
					c3.9-52.4,22-100.5,52.4-139.1c34-43.3,81-72.3,139.6-86.4c33.8-8.1,102.3-17.2,180.9,12.2c0.5,0.2,0.8,0.8,0.6,1.3
					s-0.8,0.8-1.3,0.6c-78.2-29.4-146.2-20.3-179.8-12.2c-58.2,14-104.8,42.8-138.5,85.7c-30.1,38.3-48.1,86-51.9,138
					c-4,53.3,7.4,108,32.1,153.9c26.3,49,65.7,85.3,113.9,104.8c0.5,0.2,0.8,0.8,0.6,1.3C329.5,673.9,329.1,674.1,328.7,674.1z"/>
				<path class="st0" d="M201,406.7h-0.2c-0.5-0.1-0.9-0.7-0.8-1.2l0.2-0.8c7-32.2,20.1-92.1,65.5-137.6
					c55.4-55.5,142.7-74,259.7-54.9c0.5,0.1,0.9,0.6,0.8,1.1s-0.6,0.9-1.1,0.8c-116.3-19-203-0.7-257.9,54.3
					c-45,45.1-58,104.6-65,136.6l-0.2,0.8C201.9,406.4,201.5,406.7,201,406.7L201,406.7z"/>
				<path class="st0" d="M654.8,388.4c-0.4,0-0.8-0.3-1-0.7c-9.4-31.9-21-71.7-80.7-125.1c-0.4-0.4-0.4-1-0.1-1.4
					c0.4-0.4,1-0.4,1.4-0.1c60.1,53.9,71.8,93.9,81.3,126.1c0.2,0.5-0.1,1.1-0.7,1.2H654.8z"/>
				<circle class="st0" cx="603" cy="554.6" r="6.1"/>
				<circle class="st0" cx="475.9" cy="641.6" r="6.1"/>
				<path class="st0" d="M477.9,642.5c-0.4,0-0.8-0.3-1-0.7c-0.2-0.5,0.1-1.1,0.6-1.3c31.6-10.4,71-23.3,122.6-84.5
					c0.4-0.4,1-0.5,1.4-0.1s0.5,1,0.1,1.4C549.6,618.9,509.9,631.9,477.9,642.5C478.1,642.5,478,642.5,477.9,642.5L477.9,642.5z"/>
				<path class="st0" d="M235.4,568.7c-0.3,0-0.6-0.1-0.8-0.4c-20.6-24.8-32.7-74.6-34.6-95.8c0-0.5,0.4-1,0.9-1.1s1,0.4,1.1,0.9
					c1.9,20.9,13.8,70.2,34.2,94.6c0.4,0.4,0.3,1.1-0.1,1.4C235.9,568.6,235.6,568.7,235.4,568.7z"/>
				<path class="st0" d="M447.8,682.6c-57.3,0-115.9-21.7-170.4-63.5c-0.4-0.3-0.5-1-0.2-1.4s1-0.5,1.4-0.2
					c54.1,41.4,112.3,63.1,169.2,63.1c5.6,0,11.3-0.2,16.9-0.6c54.8-4.2,107.1-29,147.2-69.8c39.6-40.3,64.5-92.7,70-147.5
					c6-59.8-11.3-117.1-50-165.9c-0.3-0.4-0.3-1.1,0.2-1.4c0.4-0.3,1.1-0.3,1.4,0.2c39,49.2,56.5,107,50.4,167.3
					c-5.5,55.2-30.6,108-70.5,148.7c-40.5,41.2-93.2,66.2-148.5,70.4C459.1,682.3,453.5,682.6,447.8,682.6L447.8,682.6z"/>
				<path class="st0" d="M630.6,619.4c-0.2,0-0.5-0.1-0.6-0.2c-0.4-0.4-0.5-1-0.1-1.4c41.6-49,66.7-108.6,70.7-167.6
					c0-0.6,0.5-1,1.1-0.9c0.6,0,1,0.5,0.9,1.1c-4,59.5-29.3,119.4-71.1,168.8C631.2,619.3,630.9,619.4,630.6,619.4L630.6,619.4z"/>
				<path class="st0" d="M440,665.4c-13,0-26-1.4-38.9-4.2c-40.2-8.9-77.8-28.6-108.5-56.9c-31.8-29.2-55.4-67-68.3-109.2
					c-0.2-0.5,0.1-1.1,0.7-1.2c0.5-0.2,1.1,0.1,1.2,0.7c12.8,41.9,36.2,79.3,67.7,108.3c30.5,28.1,67.7,47.6,107.6,56.4
					c40.1,8.8,81.1,3.7,121.8-15.1c21.7-10.1,42.6-23.7,61.9-40.6c23.3-20.4,47-51.7,56.5-66.7c0.3-0.5,0.9-0.6,1.4-0.3
					s0.6,0.9,0.3,1.4c-9.5,15-33.4,46.6-56.9,67.1c-19.5,17-40.5,30.8-62.4,40.9C496.2,658.9,468,665.4,440,665.4L440,665.4z"/>
				<path class="st0" d="M306.4,264.8c-0.3,0-0.5-0.1-0.7-0.3c-0.4-0.4-0.4-1,0-1.4c38-36,126.9-47.2,169.1-38.8
					c0.5,0.1,0.9,0.6,0.8,1.2c-0.1,0.5-0.6,0.9-1.2,0.8c-41.8-8.3-129.8,2.7-167.3,38.2C306.9,264.7,306.6,264.8,306.4,264.8
					L306.4,264.8z"/>
				<path class="st0" d="M442.4,700.3c-20.5,0-43.3-2.2-67.3-8c-0.5-0.1-0.9-0.7-0.7-1.2c0.1-0.5,0.7-0.9,1.2-0.7
					c87.4,21.4,158.5-6.8,161.5-8.1c0.5-0.2,1.1,0,1.3,0.6c0.2,0.5,0,1.1-0.6,1.3C535.6,685,497.1,700.3,442.4,700.3L442.4,700.3z"
					/>
				<path class="st0" d="M440.1,880.2c-59.4,0-117-11.6-171.3-34.6c-52.4-22.2-99.5-53.9-139.9-94.3s-72.1-87.5-94.3-139.9
					C11.6,557.1,0,499.5,0,440.1s11.6-117,34.6-171.3c22.2-52.4,53.9-99.5,94.3-139.9s87.5-72.1,139.9-94.3
					C323.1,11.6,380.7,0,440.1,0s117,11.6,171.3,34.6c52.4,22.2,99.5,53.9,139.9,94.3s72.1,87.5,94.3,139.9
					c23,54.3,34.6,111.9,34.6,171.3s-11.6,117-34.6,171.3c-22.2,52.4-53.9,99.5-94.3,139.9c-40.4,40.4-87.5,72.1-139.9,94.3
					C557.1,868.6,499.5,880.2,440.1,880.2L440.1,880.2z M440.1,7c-58.5,0-115.2,11.5-168.6,34c-51.6,21.8-97.9,53-137.7,92.8
					s-71,86.1-92.8,137.7C18.4,324.9,7,381.6,7,440.1s11.5,115.2,34,168.6c21.8,51.6,53,97.9,92.8,137.7s86.1,71,137.7,92.8
					c53.4,22.6,110.1,34,168.6,34s115.2-11.5,168.6-34c51.6-21.8,97.9-53,137.7-92.8s71-86.1,92.8-137.7
					c22.6-53.4,34-110.1,34-168.6s-11.5-115.2-34-168.6c-21.8-51.6-53-97.9-92.8-137.7s-86.1-71-137.7-92.8
					C555.3,18.5,498.6,7,440.1,7z"/>
				<g>
					<g>
						<path class="st0" d="M290.9,421.4H424v17.1H290.9c-43.1,0-78.2,37.4-78.2,83.4s35.1,83.4,78.2,83.4h80.6V474H291
							c-22.3,0-40.4,21.5-40.4,48s18.1,48,40.4,48h63.4v17.1H291c-30.2,0-54.8-29.2-54.8-65s24.6-65,54.8-65h133.1v165.6H407V474
							h-18.4v148.5h-97.7c-52,0-94.2-45.1-94.2-100.5S238.9,421.4,290.9,421.4L290.9,421.4z"/>
						<path class="st0" d="M429.1,627.7H402V479h-8.4v148.5H290.9c-54.7,0-99.2-47.3-99.2-105.5s44.5-105.6,99.2-105.6H429v27.1
							H290.9c-40.4,0-73.2,35.2-73.2,78.4s32.8,78.4,73.2,78.4h75.6V479H291c-19.5,0-35.4,19.3-35.4,43s15.9,43,35.4,43h68.4v27.1
							H291c-33,0-59.8-31.4-59.8-70s26.8-70,59.8-70h138.1V627.7L429.1,627.7z M412,617.7h7.1V462.1H291c-27.5,0-49.8,26.9-49.8,60
							s22.3,60,49.8,60h58.4V575H291c-25,0-45.4-23.8-45.4-53s20.4-53,45.4-53h85.5v141.3h-85.6c-45.9,0-83.2-39.7-83.2-88.4
							s37.3-88.4,83.2-88.4H419v-7.1H290.9c-49.2,0-89.2,42.9-89.2,95.6s40,95.5,89.2,95.5h92.7V469H412V617.7L412,617.7z"/>
					</g>
					<g>
						<path class="st0" d="M587.3,237.5H454.2v17.1h133.1c43.1,0,78.2,37.4,78.2,83.4s-35.1,83.4-78.2,83.4h-80.6V290h80.5
							c22.3,0,40.4,21.5,40.4,48s-18.1,48-40.4,48h-63.4v17.1h63.4c30.2,0,54.8-29.2,54.8-65s-24.6-65-54.8-65H454.1v165.6h17.1V290
							h18.4v148.5h97.7c52,0,94.2-45.1,94.2-100.5S639.3,237.5,587.3,237.5L587.3,237.5z"/>
						<path class="st0" d="M476.2,443.7h-27.1V268.1h138.1c33,0,59.8,31.4,59.8,70s-26.8,70-59.8,70h-68.4V381h68.4
							c19.5,0,35.4-19.3,35.4-43s-15.9-43-35.4-43h-75.5v121.4h75.6c40.4,0,73.2-35.2,73.2-78.4s-32.8-78.4-73.2-78.4H449.2v-27.1
							h138.1c54.7,0,99.2,47.3,99.2,105.5S642,443.5,587.3,443.5H484.6V295h-8.4V443.7L476.2,443.7z M459.1,433.7h7.1V285h28.4
							v148.5h92.7c49.2,0,89.2-42.8,89.2-95.5s-40-95.5-89.2-95.5H459.2v7.1h128.1c45.9,0,83.2,39.7,83.2,88.4s-37.3,88.4-83.2,88.4
							h-85.6V285h85.5c25,0,45.4,23.8,45.4,53s-20.4,53-45.4,53h-58.4v7.1h58.4c27.5,0,49.8-26.9,49.8-60s-22.3-60-49.8-60H459.1
							V433.7L459.1,433.7z"/>
					</g>
					<rect x="395.1" y="230.9" class="st0" width="35.5" height="162.9"/>
					<rect x="447.6" y="466.1" class="st0" width="35.5" height="162.9"/>
				</g>
			</g>
		</g>
	</g>
</g>
</svg>
